<?xml version="1.0" encoding="utf-8"?>
<!-- Generator: Adobe Illustrator 21.1.0, SVG Export Plug-In . SVG Version: 6.00 Build 0)  -->
<svg version="1.1" id="Layer_1" xmlns="http://www.w3.org/2000/svg" xmlns:xlink="http://www.w3.org/1999/xlink" x="0px" y="0px"
	 viewBox="0 0 239.3 45" style="enable-background:new 0 0 239.3 45;" xml:space="preserve">
<style type="text/css">
	.st0{fill:#CC0000;}
	.st1{fill:#252525;}
</style>
<g>
	<path class="st0" d="M56.2,45L41.7,0h13.1l8.7,33.1h0.6L72.4,0h12.3L70.6,45H56.2z"/>
	<path class="st0" d="M92.3,45V0h11.4v45H92.3z"/>
	<path class="st0" d="M125.8,45h-11.4V0h19.8c5.2,0,9.4,1.3,12.3,3.9c2.9,2.6,4.4,6.3,4.4,10.9c0,2.8-0.7,5.3-2,7.6
		c-1.4,2.3-3.2,4-5.7,5.1l9,17.5h-12.8l-7.7-15.7h-6V45z M125.8,21.2h6.8c2.1,0,3.7-0.5,4.9-1.6c1.2-1.1,1.8-2.6,1.8-4.5
		s-0.6-3.4-1.8-4.5c-1.3-1.3-2.9-1.8-4.9-1.8h-6.8V21.2z"/>
	<path class="st0" d="M185.9,35.1h-14.6l-2.9,9.9h-11.3l15-45h14l15.1,45h-12.5L185.9,35.1z M173.4,26.8h10.4L179,10.1h-0.6
		L173.4,26.8z"/>
	<path class="st0" d="M239.3,45h-30.6V0h11.4v35.5h19.2V45z"/>
	<g>
		<path class="st1" d="M32.8,15.5h-5.5l-2.7,13.3h6.7v5.2h-7.7L21.5,45H16l2.1-10.9H10L7.9,45H2.4l2.1-10.9H0v-5.2h5.6l2.7-13.3H1.4
			v-5.1h7.8l2-10.4h5.5l-2,10.4h8.1l2-10.4h5.5l-2,10.4h4.5V15.5z M19.2,28.9l2.7-13.3h-8.1l-2.7,13.3H19.2z"/>
	</g>
</g>
</svg>
