<?xml version="1.0" encoding="utf-8"?>
<!-- Generator: Adobe Illustrator 22.1.0, SVG Export Plug-In . SVG Version: 6.00 Build 0)  -->
<svg version="1.1" id="Capa_1" xmlns="http://www.w3.org/2000/svg" xmlns:xlink="http://www.w3.org/1999/xlink" x="0px" y="0px"
	 viewBox="0 0 464.1 464.1" style="enable-background:new 0 0 464.1 464.1;" xml:space="preserve">
<g>
	<g>
		<path d="M464,277.8c0-61.6-25.4-142.2-96-171.1V75.9l21-16.8c1.9-1.5,3-3.8,3-6.2V8c0-4.4-3.6-8-8-8h-24c-2.1,0-4.2,0.8-5.7,2.3
			L344,12.7L333.7,2.4C332.2,0.9,330.1,0,328,0h-32c-2.1,0-4.2,0.8-5.7,2.3L280,12.7L269.7,2.4C268.2,0.9,266.1,0,264,0h-24
			c-4.4,0-8,3.6-8,8v44.8c0,2.4,1.1,4.7,3,6.2l21,16.8v30.9c-70.6,28.9-96,109.5-96,171.1c-0.1,14.4,2.1,28.8,6.6,42.5
			c-3.4-0.2-6.9-0.3-10.4-0.3H136c0-4.4-3.6-8-8-8H64c-4.4,0-8,3.6-8,8H0v16h56v80H0v16h56c0,4.4,3.6,8,8,8h64c4.4,0,8-3.6,8-8v-3
			l59.7,24.8c32.6,13.3,69,13.7,101.8,1.1l123.6-47.1c7.3-2.8,13.2-8.4,16.3-15.6c4.8-10.7,2.8-23.3-5.2-31.9
			C453.8,338.4,465.3,308.5,464,277.8z M120,424H72v-96h48V424z M248,49V16h12.7l13.7,13.7c3.1,3.1,8.2,3.1,11.3,0L299.3,16h25.4
			l13.7,13.7c3.1,3.1,8.2,3.1,11.3,0L363.3,16H376v33l-18.8,15h-90.4L248,49z M352,80v24h-80V80H352z M422.8,385.8
			c-1.4,3.3-4.1,5.8-7.4,7.1L291.8,440c-29,11.1-61.2,10.8-90-1L136,411.7V336h20.3c26.5,0,52.7,6.2,76.4,18c7.8,3.9,16.5,6,25.2,6
			H320c6.6,0,12,5.5,11.9,12.1c0,5.6-3.9,10.4-9.3,11.6c-1,0.1-2.1,0.3-3.1,0.3H224v16h95.5c0.2,0,0.3,0,0.5,0c0.2,0,0.3,0,0.5,0
			c6.3-0.1,12.6-1.4,18.5-3.9l66.9-28.4c3.2-1.4,6.8-1.4,10,0c3.3,1.4,5.9,4.1,7.2,7.4C424.4,378.6,424.3,382.4,422.8,385.8z
			 M418,351.7c-6.1-1.6-12.6-1.2-18.4,1.3l-51.9,22c0.2-1,0.3-2,0.3-2.9c0-15.5-12.5-28-28-28h-62.1c-6.3,0-12.5-1.5-18.1-4.3
			c-17.4-8.6-36-14.5-55.1-17.5c-6-14.1-9-29.2-8.7-44.5c0-57.6,23.5-133.2,89.6-157.8h92.8c66.1,24.6,89.6,100.2,89.6,157.8
			C449.3,305.6,438.4,332.7,418,351.7z"/>
	</g>
</g>
<g>
	<g>
		<rect x="88" y="392" width="16" height="16"/>
	</g>
</g>
<g>
	<g>
		<path d="M329,229.3l-28.9-9.6c-3.1-1-4.8-4.4-3.8-7.5c0.8-2.4,3.1-4.1,5.7-4.1h20.1c3.3,0,5.9,2.7,5.9,6v5.2h16V214
			c0-12.1-9.8-21.9-21.9-22H320v-16h-16v16h-2.1c-12.1,0-22,9.8-22,21.9c0,9.5,6,17.9,15,20.8l28.9,9.6c3.1,1,4.8,4.4,3.8,7.5
			c-0.8,2.4-3.1,4.1-5.7,4.1h-20.1c-3.3,0-5.9-2.7-5.9-6v-5.2h-16v5.2c0,12.1,9.8,21.9,21.9,22h2.1v16h16v-16h2.1
			c12.1,0,22-9.8,22-21.9C344,240.6,338,232.3,329,229.3z"/>
	</g>
</g>
<g>
	<g>
		<path d="M312,144c-48.6,0-88,39.4-88,88c0.1,48.6,39.4,87.9,88,88c48.6,0,88-39.4,88-88S360.6,144,312,144z M312,304
			c-39.8,0-72-32.2-72-72c0-39.7,32.3-72,72-72c39.8,0,72,32.2,72,72S351.8,304,312,304z"/>
	</g>
</g>
</svg>
