<?xml version="1.0" encoding="utf-8"?>
<!-- Generator: Adobe Illustrator 22.1.0, SVG Export Plug-In . SVG Version: 6.00 Build 0)  -->
<svg version="1.1" id="Слой_1" xmlns="http://www.w3.org/2000/svg" xmlns:xlink="http://www.w3.org/1999/xlink" x="0px" y="0px"
	 viewBox="0 0 480 480" style="enable-background:new 0 0 480 480;" xml:space="preserve">
<path d="M467.8,206.8c2.5,1.5,5.6,1.6,8.1,0.2c2.5-1.4,4.1-4.1,4.1-7v-48c0-2.8-1.4-5.3-3.8-6.8l-232-144c-2.6-1.6-5.8-1.6-8.4,0
	L128,68.1V48c0-4.4-3.6-8-8-8H88c-4.4,0-8,3.6-8,8v49.9L3.8,145.2c-2.4,1.5-3.8,4-3.8,6.8v48c0,2.9,1.6,5.6,4.1,7
	c2.5,1.4,5.6,1.3,8.1-0.2L32,194.5V472c0,4.4,3.6,8,8,8h400c4.4,0,8-3.6,8-8v-82.9c16.7-5.9,28.8-20.5,31.4-37.9
	c2.7-17.5-4.5-35-18.6-45.6c-0.8-0.6-1.5-1-2.3-1.5c10.2-21.2,5.9-46.4-10.5-63.1v-46.5L467.8,206.8z M96,56h16v22L96,88V56z
	 M16,156.5l224-139l224,139v29.2L244.2,49.2c-2.6-1.6-5.8-1.6-8.4,0L16,185.6V156.5z M96,464V256h96v208H96z M352,464V352h16v112
	H352z M432,464h-48v-72h48V464z M464,344c0,15.2-10.8,28.4-25.7,31.4c-2.1,0.4-4.2,0.6-6.3,0.6h-48v-32c0-4.4-3.6-8-8-8h-32
	c-4.4,0-8,3.6-8,8v32h-56c-13.3,0-24-10.7-24-24c0-4.3,1.2-8.4,3.4-12.1c7.5,7.7,17.8,12.1,28.6,12.1c1,0,2-0.1,2.9-0.3
	c4.2-1,6.8-5.1,6-9.3c-0.8-4.2-4.8-7-9-6.4c-13.2,0-23.9-10.8-23.9-24c0-1.1,0.1-2.3,0.2-3.4c1.1-7.8,6-14.6,13.1-18.1
	c1.7-0.9,3.5-1.5,5.4-1.9h0.1c5.7-1.3,11.6-0.4,16.7,2.4c3.9,2.2,8.7,0.8,10.9-3.1c2.2-3.9,0.8-8.7-3.1-10.9
	c-5.8-3.2-12.2-4.8-18.8-4.9c-0.2,0-0.4-0.1-0.6-0.1c-0.8,0-1.5,0.2-2.2,0.2c-1.4,0.1-2.7,0.2-4,0.4c-0.6,0.1-1.1,0.1-1.7,0.2
	c0-0.3-0.1-0.5-0.1-0.8c0-15.2,10.8-28.4,25.7-31.4c2.1-0.4,4.1-0.7,6.2-0.6c6.8,0,13.5,2.2,18.9,6.2c3.6,2.6,8.6,1.9,11.2-1.7
	s1.9-8.6-1.7-11.2c-8-5.9-17.6-9.1-27.5-9.2h-0.1c0-0.2,0.1-0.4,0.2-0.6c0.5-2.2,1.2-4.3,2-6.4c0.3-0.8,0.8-1.5,1.1-2.2
	c0.7-1.5,1.4-2.9,2.3-4.2c0.5-0.8,1.1-1.5,1.7-2.3c0.9-1.2,1.8-2.3,2.8-3.4c0.7-0.7,1.4-1.4,2.1-2c1.1-1,2.2-1.9,3.4-2.8
	c0.8-0.6,1.6-1.1,2.4-1.7c1.3-0.8,2.6-1.5,3.9-2.1c0.8-0.4,1.7-0.8,2.6-1.2c1.6-0.6,3.1-1.1,4.8-1.5c0.8-0.2,1.6-0.5,2.4-0.6
	c5.1-1.1,10.4-1.1,15.6-0.1c0.8,0.2,1.6,0.5,2.4,0.8c1.7,0.4,3.4,1,5,1.6c0.9,0.4,1.6,0.9,2.5,1.3c1.5,0.7,2.9,1.5,4.3,2.3
	c0.8,0.6,1.5,1.3,2.3,1.9c1.3,0.9,2.4,1.9,3.6,3c0.8,0.8,1.4,1.6,2,2.5c1,1.1,2,2.2,2.8,3.4c0.6,0.9,1.1,2,1.6,3
	c0.8,1.2,1.5,2.5,2.1,3.8c0.5,1.1,0.7,2.2,1.1,3.4c0.5,1.3,0.9,2.7,1.3,4.1c0.3,1.2,0.3,2.4,0.4,3.6c0.2,1.5,0.4,3,0.4,4.4
	c0,0.3-0.1,0.6-0.1,0.9c0,7.4-2.2,14.5-6.2,20.7c-2.4,3.7-1.3,8.7,2.5,11.1c3.7,2.4,8.7,1.3,11.1-2.5c4.2-6.7,7-14.2,8.1-22
	c0.2,0,0.4-0.1,0.7-0.1c13.8,0,26.6,7.1,33.9,18.8s8.1,26.3,2,38.7c-0.7-0.2-1.5-0.4-2.2-0.6c-3.2-0.7-6.4-1-9.7-1
	c-15.1-0.1-29.4,7.1-38.4,19.3c-2.6,3.5-1.9,8.5,1.6,11.2s8.6,1.9,11.2-1.6c6-8.1,15.5-12.9,25.6-12.8c2.2,0,4.4,0.2,6.6,0.7
	c2.1,0.4,4.1,1.1,6,2c2.4,1,4.6,2.2,6.6,3.8C459.2,324.5,464,333.9,464,344z M432,184.6v44.8c-0.3-0.2-0.7-0.3-1.1-0.4
	c-1.3-0.6-2.6-1.1-4-1.6c-0.7-0.3-1.4-0.5-2.1-0.7c-1.1-0.4-2.2-0.7-3.3-0.9c-0.8-0.2-1.7-0.4-2.6-0.6c-1-0.2-2-0.3-3-0.5
	s-1.8-0.3-2.8-0.4c-1.7-0.2-3.5-0.3-5.2-0.3h-0.2c-0.1,0-0.2,0-0.4,0c-0.1-0.6-0.2-1.2-0.3-1.8c-0.1-0.8-0.3-1.5-0.4-2.3
	c-0.2-1-0.5-2-0.8-3c-0.2-0.7-0.4-1.4-0.6-2.1c-0.3-1-0.7-2-1.1-3c-0.3-0.6-0.5-1.3-0.7-1.9c-0.5-1.2-1.1-2.3-1.6-3.4
	c-0.2-0.4-0.4-0.9-0.6-1.3c-0.8-1.5-1.7-3-2.7-4.4c-0.2-0.3-0.4-0.6-0.6-0.8c-0.8-1.1-1.6-2.2-2.5-3.3c-0.4-0.5-0.8-0.9-1.2-1.4
	c-0.7-0.8-1.5-1.7-2.2-2.5c-0.5-0.5-1-0.9-1.5-1.4c-0.8-0.7-1.5-1.4-2.3-2.1c-0.5-0.5-1.1-0.9-1.7-1.3c-0.8-0.6-1.6-1.2-2.4-1.8
	c-0.6-0.4-1.2-0.8-1.8-1.2c-0.8-0.5-1.7-1.1-2.5-1.6c-0.6-0.4-1.3-0.7-2-1.1c-0.9-0.5-1.8-0.9-2.7-1.3c-0.7-0.3-1.4-0.6-2-0.9
	c-1-0.4-1.9-0.7-2.9-1.1c-0.7-0.2-1.4-0.5-2.1-0.7c-1-0.3-2.1-0.6-3.1-0.8c-0.7-0.2-1.4-0.3-2-0.5c-1.2-0.2-2.4-0.4-3.6-0.6
	c-0.6-0.1-1.2-0.2-1.8-0.2c-1.8-0.2-3.6-0.3-5.5-0.3s-3.7,0.1-5.6,0.3c-0.6,0.1-1.2,0.2-1.8,0.3c-1.2,0.2-2.4,0.3-3.6,0.6
	c-0.7,0.1-1.4,0.3-2.1,0.5c-1.1,0.3-2.1,0.5-3.2,0.8c-0.7,0.2-1.4,0.5-2.1,0.7c-1,0.3-2,0.7-2.9,1.1c-0.7,0.3-1.4,0.6-2.1,0.9
	c-0.9,0.4-1.8,0.8-2.7,1.3c-0.7,0.4-1.4,0.8-2,1.2c-0.9,0.5-1.7,1-2.5,1.5c-0.7,0.4-1.3,0.9-1.9,1.3c-0.8,0.6-1.6,1.1-2.3,1.7
	c-0.6,0.5-1.2,1-1.8,1.5c-0.7,0.6-1.4,1.3-2.1,1.9c-0.6,0.5-1.1,1.1-1.7,1.7c-0.7,0.7-1.3,1.4-1.9,2.1c-0.5,0.6-1,1.2-1.5,1.8
	c-0.6,0.8-1.2,1.5-1.7,2.3c-0.5,0.6-0.9,1.3-1.4,1.9c-0.5,0.8-1,1.6-1.5,2.5c-0.4,0.7-0.8,1.4-1.2,2.1c-0.4,0.9-0.9,1.7-1.3,2.6
	c-0.3,0.7-0.7,1.4-1,2.2c-0.4,0.9-0.7,1.8-1,2.8c-0.3,0.8-0.6,1.5-0.8,2.3c-0.3,1-0.5,2-0.8,2.9c-0.2,0.8-0.4,1.5-0.6,2.3
	c-0.2,1-0.3,2.1-0.5,3.2c-0.1,0.7-0.2,1.5-0.3,2.2v0.1c-0.3,0.1-0.6,0.3-1,0.4c-1,0.4-2,0.9-3,1.3c-1.4,0.6-2.8,1.3-4.1,2
	c-1,0.6-1.9,1.2-2.8,1.8c-1.3,0.8-2.5,1.7-3.6,2.6c-0.9,0.7-1.7,1.4-2.5,2.2c-1.1,1-2.1,2.1-3.1,3.2c-0.7,0.8-1.4,1.6-2.1,2.5
	c-0.9,1.2-1.8,2.5-2.6,3.7c-0.6,0.9-1.2,1.8-1.7,2.7c-0.7,1.4-1.4,2.8-2,4.3c-0.4,0.9-0.8,1.9-1.2,2.8c-0.6,1.7-1,3.4-1.4,5.1
	c-0.2,0.9-0.5,1.7-0.6,2.5c-0.9,5.1-0.9,10.3-0.1,15.4v0.3c-1.2,0.9-2.4,1.8-3.5,2.8c-0.1,0.1-0.2,0.2-0.3,0.3
	c-1.2,1.1-2.4,2.3-3.4,3.6c-0.4,0.4-0.7,0.9-1,1.4c-0.7,0.9-1.4,1.8-2,2.8c-0.4,0.6-0.7,1.1-1,1.7c-0.5,0.9-1,1.8-1.5,2.8
	c-0.3,0.6-0.6,1.2-0.8,1.9c-0.4,1-0.8,2-1.1,3c-0.2,0.6-0.4,1.2-0.6,1.9c-0.3,1.1-0.5,2.3-0.7,3.4c-0.1,0.6-0.2,1.1-0.3,1.7
	c-0.5,3.8-0.5,7.6,0.1,11.3c0.1,0.6,0.2,1.1,0.3,1.7c0.3,1.5,0.7,3,1.2,4.5c0.1,0.3,0.2,0.7,0.3,1c-0.2,0.2-0.3,0.4-0.4,0.5
	c-1.5,1.6-2.8,3.4-3.9,5.2c-0.1,0.1-0.1,0.2-0.1,0.3c-1.1,1.8-2,3.7-2.8,5.6c-0.2,0.4-0.3,0.7-0.4,1.1c-0.7,2-1.3,4-1.7,6.1
	c-0.1,0.4-0.1,0.8-0.2,1.2c-0.4,2.2-0.5,4.5-0.5,6.7c0,22.1,17.9,40,40,40h56v72H208V248c0-4.4-3.6-8-8-8H88c-4.4,0-8,3.6-8,8v216
	H48V184.6L240,65.4L432,184.6z"/>
<path d="M240,200c26.5,0,48-21.5,48-48c0-26.5-21.5-48-48-48c-26.5,0-48,21.5-48,48C192,178.5,213.5,200,240,200z M209.1,160H232
	v22.9C220.8,179.9,212.1,171.2,209.1,160z M248,182.9V160h22.9C267.9,171.2,259.2,179.9,248,182.9z M270.9,144H248v-22.9
	C259.2,124.1,267.9,132.8,270.9,144z M232,121.1V144h-22.9C212.1,132.8,220.8,124.1,232,121.1z"/>
</svg>
