<?xml version="1.0" encoding="utf-8"?>
<!-- Generator: Adobe Illustrator 20.1.0, SVG Export Plug-In . SVG Version: 6.00 Build 0)  -->
<svg version="1.1" id="Layer_1" xmlns="http://www.w3.org/2000/svg" xmlns:xlink="http://www.w3.org/1999/xlink" x="0px" y="0px"
	 viewBox="0 0 40 7.8" style="enable-background:new 0 0 40 7.8;" xml:space="preserve">
<style type="text/css">
	.st0{fill:#F16422;}
	.st1{fill:#F8A046;}
	.st2{fill:#454545;}
</style>
<path class="st0" d="M19.5,2.9c-0.7,0.1-1.3,0.5-1.3,1.3c-0.1,0.7,0.2,1.3,0.9,1.5c0.2,0.1,0.4,0.1,0.6,0.2C19.8,6,19.9,6,20,6.1
	c0.2,0.2,0.1,0.5-0.1,0.5c-0.1,0-0.3,0-0.3,0c-0.3,0-0.6-0.1-0.8-0.1c-0.2,0-0.4-0.1-0.7-0.2c0,0,0,0,0,0c0,0.4,0,0.8,0.2,1.1
	c0,0,0.1,0.1,0.1,0.1c0.6,0.2,1.3,0.3,1.9,0.1c0.4-0.1,0.8-0.3,1-0.7c0.2-0.4,0.2-0.8,0.2-1.2c-0.1-0.5-0.3-0.8-0.7-1
	c-0.2-0.1-0.4-0.1-0.6-0.2c-0.2-0.1-0.3-0.1-0.5-0.2c-0.1-0.1-0.2-0.2-0.2-0.3C19.7,4,19.8,4,19.9,4c0,0,0.2,0,0.7,0.1
	c0.3,0.1,0.5,0.2,0.8,0.2c0,0,0,0,0,0c0-0.4,0-0.7-0.2-1.1c0,0-0.1-0.1-0.1-0.1c-0.3-0.2-0.7-0.2-1.1-0.2
	C19.8,2.8,19.7,2.8,19.5,2.9"/>
<path class="st0" d="M10.7,2.9C10,3.1,9.5,3.5,9.2,4.2C8.9,4.9,8.9,5.5,9.1,6.2c0.1,0.6,0.4,1,1,1.3c0.8,0.4,1.5,0.4,2.3,0.1
	c0,0,0.1,0,0.1-0.1c0.2-0.3,0.3-0.6,0.3-0.9c0-0.1,0-0.1,0-0.2c0,0,0,0,0,0c0,0,0,0-0.1,0c-0.4,0.1-0.8,0.2-1.2,0.1
	c-0.5,0-0.9-0.4-1-0.9c0-0.2,0-0.5,0-0.7c0.1-0.6,0.4-1,1-1c0.4-0.1,0.8,0,1.2,0.2c0-0.3,0-0.8-0.2-1.1C12.5,3,12.4,3,12.3,3
	c-0.3-0.1-0.6-0.1-0.9-0.1C11.2,2.8,11,2.9,10.7,2.9"/>
<path class="st0" d="M4.2,0.2c0.2,0.4,0.1,0.9-0.3,1.2C1.6,1.9,0.3,5.2,3.3,7.7l0-0.1c0-0.1,0-0.1-0.1-0.2C3.1,6.8,3,6.5,3,5.4
	C3,3.9,3.8,3,5.3,2.7l0.1,0c0.4-0.1,0.7-0.4,1-0.7c0-0.1,0-0.2-0.1-0.3c0,0,0,0,0,0c0,0,0,0,0,0c0,0,0,0,0,0c0,0,0,0,0,0
	c0,0,0,0,0,0c0,0,0,0,0,0C5.9,0.7,5.1,0.2,4.2,0.2C4.2,0.2,4.2,0.2,4.2,0.2"/>
<path class="st1" d="M6.6,0.3C6.7,0.5,6.7,0.8,6.7,1c0,0.3-0.1,0.7-0.4,1c-0.3,0.3-0.6,0.6-1,0.7l-0.1,0C3.8,3,3,3.9,3,5.4
	c0,1.1,0.1,1.3,0.3,2c0,0.1,0,0.1,0.1,0.2l0,0.1c-3-2.4-1.7-5.8,0.6-6.3c0.4-0.2,0.6-0.7,0.3-1.2c0,0,0,0,0,0h0v0
	c0,0.5-0.4,0.9-0.8,0.9C1.5,1.1,0,2.6,0,4.4c0,1.9,1.5,3.4,3.4,3.4l0,0h4V7.5c0-0.6-0.5-1.1-1.1-1.1c0.2-0.3,0.3-0.6,0.3-0.9
	c0,0,0-0.1,0-0.1H7c0.3,0,0.6-0.1,0.8-0.3C8,4.8,8.2,4.5,8.2,4.2V3.9H7.4l0.2-0.4c0,0,0,0,0,0c0.5-0.1,0.9-0.3,1.3-0.7L9,2.8V2.6
	c0-0.9-0.7-1.7-1.6-1.9c0-0.2-0.1-0.5-0.2-0.7L6.6,0.3z"/>
<path class="st0" d="M25.6,2.8c-0.2,0-0.4,0-0.6,0.1c-0.1,0-0.1,0.1-0.1,0.2v1.7h-1.5V3.1c0-0.1,0-0.1-0.1-0.2
	c-0.2,0-0.4-0.1-0.6-0.1c-0.2,0-0.4,0-0.6,0.1C22.1,2.9,22,3,22,3.1v4.5c0,0.1,0,0.1,0.1,0.2c0.2,0,0.4,0.1,0.6,0.1
	c0.2,0,0.4,0,0.6-0.1c0.1,0,0.1-0.1,0.1-0.2V5.9h1.5v1.7c0,0.1,0,0.1,0.1,0.2c0.2,0,0.4,0.1,0.6,0.1c0.2,0,0.4,0,0.6-0.1
	c0.1,0,0.1-0.1,0.1-0.2V3.1c0-0.1,0-0.1-0.1-0.2C25.9,2.8,25.8,2.8,25.6,2.8C25.6,2.8,25.6,2.8,25.6,2.8"/>
<path class="st0" d="M15.2,5c0.1-0.3,0.1-0.6,0.2-0.9c0,0,0-0.1,0-0.1c0,0,0.1-0.1,0.1-0.1c0,0,0,0,0.1,0.1c0,0,0,0.1,0,0.1
	c0.1,0.3,0.1,0.6,0.2,0.9c0,0.1,0.1,0.4,0.2,0.8H15C15.1,5.4,15.1,5.1,15.2,5 M14.5,2.9c-0.1,0-0.1,0-0.1,0.1
	c-0.5,1.5-0.9,3.1-1.4,4.6c0,0.1,0,0.1,0.1,0.1c0.4,0.1,0.8,0.1,1.3,0c0,0,0.1-0.1,0.1-0.1c0-0.1,0.1-0.3,0.2-0.7h1.5
	c0.1,0.3,0.2,0.6,0.2,0.7c0,0,0.1,0.1,0.1,0.1c0.4,0.1,0.8,0.1,1.3,0c0.1,0,0.1-0.1,0.1-0.1c-0.5-1.5-0.9-3.1-1.4-4.6
	c0-0.1,0-0.1-0.1-0.1c-0.3,0-0.6-0.1-0.9-0.1C15.1,2.8,14.8,2.9,14.5,2.9"/>
<path class="st2" d="M35.3,4C35,3.4,34.6,3.1,34,2.9c-0.2-0.1-0.5-0.1-0.7-0.1c-0.2,0-0.5,0-0.7,0.1c-0.6,0.2-1,0.5-1.3,1.1
	C31.1,4.4,31,4.9,31,5.3c0,0.4,0,0.7,0.1,1.1c0.2,0.6,0.5,1,1.1,1.3c0.3,0.1,0.7,0.2,1.1,0.2c0.4,0,0.7-0.1,1.1-0.2
	c0.6-0.2,0.9-0.7,1.1-1.3c0.1-0.3,0.1-0.7,0.1-1.1C35.6,4.9,35.5,4.4,35.3,4 M34,6.1c-0.1,0.3-0.4,0.5-0.7,0.5
	c-0.3,0-0.6-0.2-0.7-0.5c-0.2-0.5-0.2-1.1,0-1.6C32.7,4.2,32.9,4,33.3,4c0,0,0,0,0,0s0,0,0,0c0.4,0,0.6,0.2,0.7,0.5
	C34.2,5.1,34.2,5.6,34,6.1"/>
<path class="st2" d="M30.9,3.1c0-0.1,0-0.1-0.1-0.2c-0.2,0-0.4-0.1-0.6-0.1c-0.2,0-0.4,0-0.6,0.1c0,0-0.1,0-0.1,0.1l0,0v0
	c0,0,0,0,0,0c-0.2,0.5-0.5,1.2-0.6,1.7c0,0.1,0,0.1-0.1,0.2c0,0,0,0.1-0.1,0.2c0,0,0-0.1-0.1-0.2c0-0.1,0-0.1-0.1-0.2
	c-0.1-0.6-0.4-1.2-0.6-1.7c0,0,0,0,0,0v0l0,0c0,0,0-0.1-0.1-0.1c-0.2,0-0.4-0.1-0.6-0.1c-0.2,0-0.4,0-0.6,0.1
	c-0.1,0-0.1,0.1-0.1,0.2c0,0,0,0.1,0,0.1c0.5,1.1,0.8,1.8,1.2,2.9c0,0.1,0.1,0.3,0.1,0.4c0,0,0,0,0,0.1v1.1c0,0.1,0,0.1,0.1,0.2
	c0.2,0,0.4,0.1,0.6,0.1c0.2,0,0.4,0,0.6-0.1c0.1,0,0.1-0.1,0.1-0.2V6.5c0,0,0,0,0-0.1c0-0.1,0.1-0.3,0.1-0.4
	C30.1,4.9,30.4,4.2,30.9,3.1C30.9,3.1,30.9,3.1,30.9,3.1"/>
<path class="st2" d="M40,3.1c0-0.1,0-0.1-0.1-0.2c-0.2,0-0.4-0.1-0.6-0.1c-0.2,0-0.4,0-0.6,0.1c-0.1,0-0.1,0.1-0.1,0.2v3
	c-0.1,0.4-0.2,0.6-0.6,0.6c0,0,0,0,0,0h0c0,0,0,0,0,0c-0.4,0-0.6-0.2-0.6-0.6v-3c0-0.1,0-0.1-0.1-0.2c-0.2,0-0.4-0.1-0.6-0.1
	c-0.2,0-0.4,0-0.6,0.1c-0.1,0-0.1,0.1-0.1,0.2v3c0,0.4,0.1,0.9,0.5,1.2c0.2,0.3,0.6,0.4,0.9,0.5c0.2,0.1,0.5,0.1,0.7,0.1h0
	c0.2,0,0.5,0,0.7-0.1c0.3-0.1,0.7-0.3,0.9-0.5C39.9,6.9,40,6.5,40,6V3.1z"/>
</svg>
