<svg 
 xmlns="http://www.w3.org/2000/svg"
 xmlns:xlink="http://www.w3.org/1999/xlink"
 width="8px" height="14px">
<path fill-rule="evenodd"  fill="rgb(255, 255, 255)"
 d="M7.698,-0.006 L5.778,-0.009 C3.622,-0.009 2.228,1.346 2.228,3.442 L2.228,5.033 L0.298,5.033 C0.131,5.033 -0.003,5.161 -0.003,5.319 L-0.003,7.623 C-0.003,7.782 0.132,7.909 0.298,7.909 L2.228,7.909 L2.228,13.726 C2.228,13.884 2.363,14.011 2.530,14.011 L5.048,14.011 C5.215,14.011 5.350,13.884 5.350,13.726 L5.350,7.909 L7.606,7.909 C7.773,7.909 7.908,7.782 7.908,7.623 L7.909,5.319 C7.909,5.243 7.877,5.171 7.820,5.117 C7.764,5.063 7.687,5.033 7.607,5.033 L5.350,5.033 L5.350,3.684 C5.350,3.036 5.513,2.707 6.404,2.707 L7.697,2.707 C7.864,2.707 7.999,2.578 7.999,2.421 L7.999,0.280 C7.999,0.122 7.864,-0.006 7.698,-0.006 Z"/>
</svg>