<?xml version="1.0" encoding="utf-8"?>
<!-- Generator: Adobe Illustrator 21.1.0, SVG Export Plug-In . SVG Version: 6.00 Build 0)  -->
<svg version="1.1" id="Layer_1" xmlns="http://www.w3.org/2000/svg" xmlns:xlink="http://www.w3.org/1999/xlink" x="0px" y="0px"
	 viewBox="0 0 240 120" style="enable-background:new 0 0 240 120;" xml:space="preserve">
<style type="text/css">
	.st0{fill:#666666;}
	.st1{fill:#0099FF;}
</style>
<g>
	<g id="Layer_1_1_">
		<g>
			<path class="st0" d="M20,73V46.9h8.9c3.1,0,5.4,0.6,7,1.8c1.6,1.2,2.4,3,2.4,5.4c0,1.3-0.3,2.4-1,3.4c-0.7,1-1.5,1.7-2.7,2.1
				c1.3,0.3,2.3,1,3.1,2c0.8,1,1.1,2.2,1.1,3.7c0,2.5-0.8,4.4-2.3,5.7c-1.6,1.3-3.8,2-6.7,2C29.8,73,20,73,20,73z M25.2,57.9h3.9
				c2.6-0.1,3.9-1.1,3.9-3.2c0-1.2-0.3-2-1-2.6s-1.7-0.8-3.2-0.8h-3.7V57.9z M25.2,61.7v7h4.5c1.3,0,2.2-0.3,2.9-0.9
				c0.7-0.6,1-1.4,1-2.5c0-2.4-1.2-3.6-3.6-3.7L25.2,61.7L25.2,61.7z"/>
			<path class="st0" d="M62,46.9v16.9c0,2.8-0.9,5-2.6,6.7S55.3,73,52.3,73c-3,0-5.3-0.8-7-2.4c-1.7-1.6-2.6-3.8-2.7-6.6V46.9h5.2
				v17c0,1.7,0.4,2.9,1.2,3.7c0.8,0.8,1.9,1.1,3.3,1.1c3,0,4.4-1.6,4.5-4.7V46.9H62z"/>
			<path class="st0" d="M79.5,66c0-1-0.3-1.7-1-2.3c-0.7-0.5-2-1.1-3.8-1.7c-1.8-0.6-3.2-1.1-4.3-1.7C67.4,58.7,66,56.6,66,54
				c0-1.4,0.4-2.6,1.1-3.7c0.8-1.1,1.9-1.9,3.3-2.5c1.4-0.6,3.1-0.9,4.9-0.9c1.8,0,3.4,0.3,4.9,1c1.4,0.7,2.5,1.6,3.3,2.8
				c0.8,1.2,1.2,2.6,1.2,4.1h-5.2c0-1.1-0.4-2.1-1.1-2.7c-0.7-0.7-1.7-1-3.1-1c-1.3,0-2.3,0.3-3,0.8c-0.7,0.5-1,1.3-1,2.1
				c0,0.8,0.4,1.5,1.3,2.1c0.8,0.5,2.1,1.1,3.7,1.6c3,0.9,5.1,2,6.5,3.3c1.4,1.3,2,3,2,5c0,2.2-0.8,3.9-2.5,5.2
				c-1.6,1.3-3.9,1.9-6.7,1.9c-2,0-3.7-0.4-5.4-1.1c-1.6-0.7-2.8-1.7-3.7-3c-0.8-1.3-1.3-2.7-1.3-4.3h5.2c0,2.8,1.7,4.2,5,4.2
				c1.3,0,2.2-0.3,2.9-0.8C79.1,67.7,79.5,66.9,79.5,66z"/>
			<path class="st1" d="M103,61.5H92.3v11.5H89V46.9h15.7v2.8H92.3v9H103V61.5z"/>
			<path class="st1" d="M128.2,60.8c0,2.5-0.4,4.6-1.3,6.5s-2,3.3-3.6,4.3c-1.5,1-3.3,1.5-5.4,1.5s-3.8-0.5-5.3-1.5
				c-1.5-1-2.7-2.4-3.6-4.2c-0.9-1.8-1.3-3.9-1.3-6.3v-1.9c0-2.5,0.4-4.6,1.3-6.4c0.9-1.9,2.1-3.3,3.6-4.3c1.5-1,3.3-1.5,5.3-1.5
				c2,0,3.8,0.5,5.4,1.5c1.5,1,2.7,2.4,3.6,4.3c0.8,1.9,1.3,4,1.3,6.5L128.2,60.8L128.2,60.8z M124.9,59.2c0-3-0.6-5.3-1.8-6.9
				c-1.2-1.6-2.9-2.4-5.1-2.4c-2.1,0-3.8,0.8-5,2.4c-1.2,1.6-1.9,3.8-1.9,6.7v1.9c0,2.9,0.6,5.2,1.9,6.9c1.2,1.7,2.9,2.5,5.1,2.5
				s3.8-0.8,5-2.3c1.2-1.6,1.8-3.8,1.9-6.8v-1.9H124.9z"/>
			<path class="st1" d="M142.5,62.5h-6V73h-3.4V46.9h8.4c2.8,0,5.1,0.7,6.6,2c1.5,1.3,2.3,3.3,2.3,5.8c0,1.6-0.4,3.1-1.3,4.3
				c-0.9,1.2-2,2.1-3.6,2.7l6,11.1v0.2H148L142.5,62.5z M136.6,59.7h5.1c1.6,0,3-0.4,4-1.3s1.5-2.1,1.5-3.6c0-1.6-0.5-2.8-1.4-3.7
				c-0.9-0.9-2.3-1.3-4-1.3h-5.1V59.7z"/>
			<path class="st0" d="M163.3,58.7l5.3-11.7h5.7L166,63.6V73h-5.3v-9.5l-8.4-16.6h5.7L163.3,58.7z"/>
			<path class="st0" d="M196.9,60.5c0,2.5-0.4,4.7-1.3,6.6c-0.9,1.9-2.1,3.3-3.8,4.4s-3.6,1.5-5.7,1.5s-4-0.5-5.6-1.5
				c-1.6-1-3-2.5-3.8-4.3c-0.9-1.9-1.4-4-1.4-6.5v-1.3c0-2.5,0.4-4.7,1.4-6.6c0.9-1.9,2.2-3.3,3.8-4.4c1.6-1,3.6-1.5,5.6-1.5
				c2.1,0,4,0.5,5.6,1.5c1.6,1,2.9,2.5,3.8,4.4c0.9,1.9,1.4,4.1,1.4,6.6L196.9,60.5L196.9,60.5z M191.6,59.4c0-2.7-0.5-4.7-1.4-6.1
				s-2.3-2.1-4.1-2.1c-1.7,0-3.1,0.7-4,2.1c-0.9,1.4-1.4,3.4-1.4,6v1.3c0,2.6,0.5,4.6,1.4,6c0.9,1.4,2.3,2.1,4.1,2.1s3.1-0.7,4-2.1
				c0.9-1.4,1.4-3.4,1.4-6V59.4z"/>
			<path class="st0" d="M220,46.9v16.9c0,2.8-0.9,5-2.6,6.7c-1.7,1.6-4.1,2.5-7.1,2.5c-3,0-5.3-0.8-7-2.4c-1.7-1.6-2.6-3.8-2.7-6.6
				V46.9h5.2v17c0,1.7,0.4,2.9,1.2,3.7c0.8,0.8,1.9,1.1,3.3,1.1c3,0,4.4-1.6,4.5-4.7V46.9H220z"/>
		</g>
	</g>
</g>
</svg>
