<?xml version="1.0" encoding="utf-8"?>
<!-- Generator: Adobe Illustrator 21.1.0, SVG Export Plug-In . SVG Version: 6.00 Build 0)  -->
<svg version="1.1" id="Layer_1" xmlns="http://www.w3.org/2000/svg" xmlns:xlink="http://www.w3.org/1999/xlink" x="0px" y="0px"
	 viewBox="0 0 240 120" style="enable-background:new 0 0 240 120;" xml:space="preserve">
<style type="text/css">
	.st0{fill:#2AA876;}
	.st1{fill:#FFFFFF;}
	.st2{fill:#1A1A1A;}
</style>
<g>
	<rect x="20" y="45.3" class="st0" width="29.5" height="29.5"/>
	<path class="st1" d="M37.8,63.9v1.8h1.7v1.5c0,0.9-0.1,1.6-0.4,2.1c-0.2,0.5-0.7,0.7-1.3,0.7c-0.7,0-1.1-0.2-1.3-0.7
		c-0.2-0.4-0.4-1.1-0.4-2v-6.5c0-0.6,0-1,0.1-1.4c0.1-0.4,0.2-0.7,0.4-0.9c0.2-0.2,0.6-0.3,1.1-0.3c0.4,0,0.8,0.1,1,0.3
		c0.2,0.2,0.4,0.4,0.4,0.8c0.1,0.3,0.1,0.8,0.1,1.3v0.9h2.7v-0.8c0-1.5-0.3-2.6-1-3.4c-0.7-0.8-1.8-1.1-3.3-1.1
		c-1.6,0-2.8,0.4-3.4,1.3c-0.6,0.8-0.9,2-1,3.5c-0.1,0.2-0.2,0.4-0.3,0.6c-0.2,0.2-0.5,0.3-1,0.3c-0.6,0-1-0.2-1.2-0.6
		c-0.2-0.4-0.3-1-0.3-1.9v-6.7c0-0.6,0-1,0.1-1.4c0.1-0.4,0.2-0.6,0.4-0.8c0.2-0.2,0.6-0.3,1-0.3c0.4,0,0.8,0.1,1,0.3
		c0.2,0.2,0.3,0.5,0.4,0.8c0.1,0.3,0.1,0.7,0.1,1.3v1.3h2.7v-1.3c0-1.4-0.3-2.5-1-3.3c-0.6-0.8-1.7-1.1-3.2-1.1
		c-1.6,0-2.8,0.4-3.4,1.3c-0.7,0.9-1,2.2-1,3.9v5.5c0,1.6,0.3,2.9,1,3.8c0.7,0.9,1.8,1.3,3.4,1.3c0.5,0,0.9,0,1.3-0.1v2.9
		c0,1.7,0.3,3,1,3.9c0.6,0.9,1.7,1.4,3.2,1.4c1.3,0,2.1-0.6,2.6-1.7l0.2,1.5H42v-7.9H37.8z"/>
	<g>
		<path class="st2" d="M58.7,70.1c-1-1.4-1.5-3.3-1.5-5.8V56c0-2.6,0.5-4.5,1.5-5.8c1-1.3,2.7-2,5.2-2c2.3,0,3.9,0.6,4.9,1.7
			c1,1.2,1.4,2.8,1.4,5v2h-4.1v-2c0-0.8,0-1.5-0.1-1.9c-0.1-0.5-0.3-0.9-0.6-1.2c-0.3-0.3-0.8-0.4-1.5-0.4c-0.7,0-1.2,0.2-1.6,0.5
			c-0.3,0.3-0.6,0.7-0.7,1.3c-0.1,0.5-0.2,1.2-0.2,2.1v10.1c0,1.3,0.2,2.3,0.5,2.9c0.3,0.6,1,0.9,1.9,0.9c0.7,0,1.1-0.2,1.5-0.5
			c0.3-0.3,0.5-0.7,0.6-1.2c0.1-0.5,0.1-1.2,0.1-2v-2.1h4.1V65c0,2.2-0.5,4-1.4,5.2c-0.9,1.2-2.6,1.9-4.9,1.9
			C61.5,72.1,59.8,71.5,58.7,70.1z"/>
		<path class="st2" d="M73.2,48.5h5.6c2.5,0,4.3,0.5,5.5,1.4c1.2,0.9,1.8,2.5,1.8,4.8c0,1.5-0.2,2.7-0.6,3.6c-0.4,0.9-1.2,1.6-2.2,2
			l3.3,11.5h-4.3l-2.8-10.7h-2v10.7h-4.2V48.5z M78.8,58.5c1.2,0,2.1-0.3,2.6-0.8c0.5-0.6,0.8-1.5,0.8-2.7c0-1.2-0.2-2.1-0.7-2.7
			c-0.5-0.6-1.3-0.8-2.4-0.8h-1.6v7.1H78.8z"/>
		<path class="st2" d="M89.4,48.5h9.8v3h-5.6v6.7H98v3h-4.4v7.8h5.6v2.9h-9.9V48.5z"/>
		<path class="st2" d="M101.7,48.5h5.5c1.9,0,3.4,0.3,4.4,0.8c1.1,0.5,1.8,1.3,2.3,2.3c0.5,1,0.7,2.4,0.7,4.2v8.5
			c0,1.8-0.2,3.2-0.7,4.3c-0.5,1.1-1.2,1.9-2.3,2.5c-1.1,0.5-2.5,0.8-4.3,0.8h-5.7V48.5z M107.3,68.8c0.9,0,1.6-0.2,2-0.5
			c0.4-0.3,0.7-0.8,0.8-1.4c0.1-0.6,0.2-1.5,0.2-2.6v-8.9c0-1-0.1-1.8-0.2-2.4c-0.1-0.5-0.4-0.9-0.9-1.2c-0.4-0.3-1.1-0.4-2-0.4
			h-1.3v17.4H107.3z"/>
		<path class="st2" d="M117.9,48.5h4.2v23.4h-4.2V48.5z"/>
		<path class="st2" d="M128,51.6h-3.7v-3.1h11.6v3.1h-3.6v20.2H128V51.6z"/>
		<path class="st0" d="M139.2,70.2c-0.9-1.3-1.3-3.1-1.3-5.5v-9.1c0-2.4,0.4-4.3,1.3-5.5s2.4-1.9,4.6-1.9c2,0,3.5,0.6,4.3,1.7
			c0.9,1.1,1.3,2.8,1.3,5v0.8h-2.1v-0.8c0-1.7-0.2-3-0.7-3.8c-0.5-0.8-1.4-1.2-2.8-1.2c-1,0-1.8,0.2-2.4,0.7s-0.9,1-1.1,1.8
			c-0.2,0.8-0.3,1.7-0.3,2.9V65c0,1.8,0.3,3.2,0.8,4.1c0.5,0.9,1.5,1.3,3,1.3c1.4,0,2.3-0.4,2.9-1.3c0.5-0.9,0.8-2.3,0.8-4.1v-2.7
			h-3.5v-1.6h5.5v11.3h-1.4l-0.3-2.7c-0.3,0.9-0.8,1.7-1.5,2.2c-0.7,0.5-1.6,0.8-2.7,0.8C141.6,72.1,140.1,71.5,139.2,70.2z"/>
		<path class="st0" d="M157,48.5h2.3l5,23.4h-2.2l-1.2-6.3h-5.6l-1.2,6.3h-2.1L157,48.5z M160.7,64l-2.5-12.6L155.7,64H160.7z"/>
		<path class="st0" d="M167.1,48.5h5.3c2.1,0,3.6,0.5,4.5,1.5c0.9,1,1.3,2.5,1.3,4.4c0,1.5-0.2,2.7-0.7,3.7c-0.5,1-1.3,1.6-2.5,1.8
			l3.6,11.9h-2.1L173,60.3h-3.7v11.5h-2.2V48.5z M172.3,58.7c1.4,0,2.4-0.3,2.9-1c0.6-0.7,0.8-1.8,0.8-3.3c0-1.5-0.3-2.6-0.8-3.3
			c-0.5-0.7-1.5-1-2.9-1h-3v8.6H172.3z"/>
		<path class="st0" d="M185.5,48.5h2.3l5,23.4h-2.2l-1.2-6.3h-5.6l-1.2,6.3h-2.1L185.5,48.5z M189.2,64l-2.5-12.6L184.2,64H189.2z"
			/>
		<path class="st0" d="M195.6,48.5h1.6l7.4,18.1V48.5h1.9v23.4H205l-7.5-18.3v18.3h-1.9V48.5z"/>
		<path class="st0" d="M213.5,50.2h-4.4v-1.7H220v1.7h-4.3v21.7h-2.2V50.2z"/>
	</g>
</g>
</svg>
