<?xml version="1.0" encoding="utf-8"?>
<!-- Generator: Adobe Illustrator 21.1.0, SVG Export Plug-In . SVG Version: 6.00 Build 0)  -->
<svg version="1.1" id="Layer_1" xmlns="http://www.w3.org/2000/svg" xmlns:xlink="http://www.w3.org/1999/xlink" x="0px" y="0px"
	 viewBox="0 0 240 120" style="enable-background:new 0 0 240 120;" xml:space="preserve">
<style type="text/css">
	.st0{fill:#000703;}
	.st1{fill:#D14A43;}
	.st2{fill:#EBB144;}
	.st3{fill:#EAB191;}
	.st4{fill:#201600;}
	.st5{fill:#97C35A;}
</style>
<g>
	<g>
		<g>
			<path class="st0" d="M59.5,72.3c0.3-0.9,0.5-1.8,0.4-2.9c-0.1-1-0.3-2.1-0.8-3.3c-0.7-2-1.7-3.4-1.8-3.5l-0.3-0.4l-1.2,0.3l0-0.1
				H39.7l-0.9-0.3l-0.3,0.4c0,0.1-1,1.5-1.8,3.5c-0.4,1.2-0.7,2.3-0.8,3.3c-0.1,1.1,0.1,2.1,0.5,3.1c-0.2,0.7-0.5,1.9-0.7,3.5
				c-0.2,1.3-0.2,2.6-0.1,3.8c0.1,1.5,0.5,2.8,1,4c1,2.1,2.7,3.5,5,4.3l0.1,0h12.4l0.1-0.1c2.1-0.9,3.7-2.3,4.7-4.2
				c0.8-1.5,1.2-3.3,1.3-5.3C60.4,75.6,59.7,73.2,59.5,72.3z M56.6,63.7c0.6,1,2.1,3.7,2.1,6.3l-2.3-6.2L56.6,63.7z M39.8,65.8
				c0,0.1,0.1,0.2,0.2,0.3c1,1.6,3.5,2.5,7.4,2.5V76c-2.7,0-4.9-0.4-6.5-1.1c-1.4-0.6-2.5-1.4-3-2.5c0,0,0,0,0,0l0,0L39.8,65.8z
				 M42.9,66.7C42,66.4,41.4,66,41,65.4c-0.4-0.7-0.3-1.4-0.2-1.7H55l0,0.1c0.1,0.3,0.2,1-0.2,1.6c-0.3,0.5-1,1-1.9,1.3
				c-1.2,0.4-2.9,0.7-5,0.7C45.8,67.4,44.1,67.2,42.9,66.7z M48.6,68.6c3.9-0.1,6.3-0.9,7.3-2.5l2.3,6.1c0,0,0,0.1-0.1,0.1
				c-0.6,1.1-1.6,1.9-3,2.5c-1.6,0.7-3.8,1-6.5,1.1V68.6z M39,64.2l-1.8,5.8C37.2,67.7,38.3,65.4,39,64.2z M59.1,78.3
				c-0.1,4-1.7,6.8-4.8,8.3c-0.4-1.3-1.7-2.3-3.1-2.3c-1.5,0-2.7,1-3.2,2.3c-0.4-1.3-1.7-2.3-3.2-2.3c-1.5,0-2.7,0.9-3.1,2.3
				c-1.8-0.7-3.1-1.9-3.9-3.5c-1.1-2.3-1.1-5.1-0.8-7c0.1-0.8,0.3-1.6,0.4-2.2c1.8,2.2,5.4,3.3,10.6,3.3c5.3,0,8.9-1.1,10.7-3.4
				C58.8,74.9,59.1,76.6,59.1,78.3z"/>
			<g>
				<path class="st1" d="M37.8,72.3c-1.6-3.1,0.7-7.4,1.5-8.7l0.2,0.1c-0.1,0.6-0.1,1.5,0.4,2.3c1,1.6,3.5,2.5,7.4,2.5V76
					c-2.7,0-4.9-0.4-6.5-1.1C39.4,74.3,38.3,73.4,37.8,72.3z M58.1,72.3c-0.6,1.1-1.6,1.9-3,2.5c-1.6,0.7-3.8,1-6.5,1.1v-7.3
					c3.9-0.1,6.3-0.9,7.4-2.5c0.6-0.9,0.5-1.8,0.4-2.3l0.2-0.1C57.3,64.9,59.7,69.2,58.1,72.3z"/>
			</g>
			<path class="st1" d="M42.9,66.7C42,66.4,41.4,66,41,65.4c-0.4-0.7-0.3-1.4-0.2-1.7H55l0,0.1c0.1,0.3,0.2,1-0.2,1.6
				c-0.3,0.5-1,1-1.9,1.3c-1.2,0.4-2.9,0.7-5,0.7C45.8,67.4,44.1,67.2,42.9,66.7z"/>
			<path class="st1" d="M59.1,78.3c-0.1,4-1.7,6.8-4.8,8.3c-0.4-1.3-1.7-2.3-3.1-2.3c-1.5,0-2.7,1-3.2,2.3c-0.4-1.3-1.7-2.3-3.2-2.3
				c-1.5,0-2.7,0.9-3.1,2.3c-1.8-0.7-3.1-1.9-3.9-3.5c-1.1-2.3-1.1-5.1-0.8-7c0.1-0.8,0.3-1.6,0.4-2.2c1.8,2.2,5.4,3.3,10.6,3.3
				c5.3,0,8.9-1.1,10.7-3.4C58.8,74.9,59.1,76.6,59.1,78.3z"/>
		</g>
		<g>
			<g>
				<g>
					<path class="st2" d="M31.6,47.1c-0.1,0-0.3,0-0.4-0.1l-10-7.8c-0.1-0.1-0.2-0.2-0.2-0.3c0-0.1-0.3-1.1,0.3-1.8
						c0.2-0.3,0.7-0.7,1.7-0.7c0,0,0.1,0,0.1,0c0.2,0,0.3,0.1,0.4,0.2l8.5,8.8c0.1,0.1,0.2,0.3,0.2,0.4v0.8c0,0.2-0.1,0.5-0.3,0.6
						C31.8,47.1,31.7,47.1,31.6,47.1z"/>
				</g>
				<g>
					<path class="st0" d="M23,37C23.1,37,23.1,37,23,37l8.6,8.8v0.8l-10-7.8C21.6,38.7,21.2,37,23,37 M23,35.7L23,35.7
						c-1.2,0-1.9,0.5-2.2,1c-0.7,1-0.5,2.1-0.4,2.4c0.1,0.3,0.2,0.5,0.4,0.7l10,7.8c0.2,0.2,0.5,0.3,0.8,0.3c0.2,0,0.4,0,0.5-0.1
						c0.4-0.2,0.7-0.6,0.7-1.1v-0.8c0-0.3-0.1-0.6-0.4-0.9L24,36.1c-0.2-0.2-0.5-0.4-0.9-0.4C23.1,35.7,23.1,35.7,23,35.7L23,35.7z"
						/>
				</g>
				<g>
					<path class="st2" d="M31.7,46c-0.2,0-0.4-0.1-0.5-0.3l-6.4-10.8c-0.1-0.1-0.1-0.3-0.1-0.5c0.3-1.1,1-1.7,2-1.7
						c0.5,0,0.9,0.2,1,0.2c0.1,0.1,0.3,0.2,0.3,0.3l4.5,10.9c0.1,0.1,0.1,0.3,0,0.4l-0.3,1C32.2,45.8,32,46,31.7,46
						C31.8,46,31.7,46,31.7,46z"/>
				</g>
				<path class="st0" d="M68.3,44.7c-1.3,0-2.4,0.3-3.5,0.8c-0.6-2.5-1.6-4.6-3.1-6.3c-1.4-1.6-3.2-2.8-5.4-3.7
					c-2.4-0.9-5.3-1.4-8.6-1.4c-6,0-10.5,1.7-13.5,5.1c-0.8,0.9-1.4,1.9-1.9,2.9l-3.8-9.2c-0.1-0.3-0.4-0.5-0.6-0.7
					c-0.1,0-0.6-0.2-1.2-0.2c-0.6,0-1.1,0.2-1.5,0.5c-0.5,0.4-0.9,1-1.1,1.7c-0.1,0.3,0,0.6,0.1,0.9l5.8,10
					c-0.8-0.3-1.7-0.5-2.6-0.5c-4.2,0-7.5,3.4-7.5,7.5c0,4.2,3.4,7.5,7.5,7.5c1.3,0,2.5-0.3,3.6-0.9c0.4,1.3,1.4,2.4,3,3.3
					c1.4,0.8,3.4,1.5,5.8,2c4,0.8,7.8,0.8,8,0.8c0,0,0,0,0,0c0.2,0,4,0,8-0.8c2.4-0.5,4.3-1.1,5.8-2c1.6-0.9,2.6-2,3.1-3.3
					c1.1,0.6,2.4,1,3.7,1c4.2,0,7.5-3.4,7.5-7.5C75.9,48,72.5,44.7,68.3,44.7z M26.7,33.3c0.4,0,0.7,0.1,0.7,0.1l4.3,10.3
					c-0.1,0.4-0.3,0.7-0.4,1.1l-6-10.2C25.6,33.5,26.2,33.3,26.7,33.3z"/>
			</g>
			<path class="st3" d="M32.1,57.7l0,0.1c0.4,2.9,4.6,4.3,8,5c3.8,0.8,7.6,0.8,7.7,0.8c0.1,0,3.9,0,7.7-0.8c3.4-0.7,7.6-2.1,8-5
				l0-0.2c0.3-2,0.7-5.2,0.5-8.5c-2.1,0.5-6.2,1-6.2,1l-1-2.3l-0.4,2.4c-3.4,0.5-7.3,0.5-7.3,0.5l-1.4-4.3l-1.4,4.3
				c0,0-3.8,0-7.3-0.5l-0.4-2.4l-1,2.3c0,0-4-0.5-6.1-1C31.4,52.8,31.9,56.1,32.1,57.7z"/>
			<g>
				<g>
					<path class="st0" d="M58.9,55.7c-0.4,0-0.7-0.3-0.7-0.7c0-0.6-0.5-1.1-1.1-1.1c-0.6,0-1.1,0.5-1.1,1.1c0,0.4-0.3,0.7-0.7,0.7
						c-0.4,0-0.7-0.3-0.7-0.7c0-1.4,1.1-2.5,2.5-2.5c1.4,0,2.5,1.1,2.5,2.5C59.6,55.4,59.3,55.7,58.9,55.7z"/>
				</g>
				<g>
					<path class="st0" d="M40.5,55.7c-0.4,0-0.7-0.3-0.7-0.7c0-0.6-0.5-1.1-1.1-1.1c-0.6,0-1.1,0.5-1.1,1.1c0,0.4-0.3,0.7-0.7,0.7
						c-0.4,0-0.7-0.3-0.7-0.7c0-1.4,1.1-2.5,2.5-2.5c1.4,0,2.5,1.1,2.5,2.5C41.2,55.4,40.9,55.7,40.5,55.7z"/>
				</g>
			</g>
			<g>
				<path class="st0" d="M47.9,61c-1.8,0-2.7-0.9-3.1-1.6c-0.5-0.8-0.5-1.5-0.5-1.6c0-0.2,0.1-0.4,0.2-0.5c0.1-0.1,0.3-0.2,0.5-0.2
					h5.8c0.2,0,0.4,0.1,0.5,0.2c0.1,0.1,0.2,0.3,0.2,0.5c0,0.1-0.1,0.8-0.5,1.6C50.6,60.1,49.7,61,47.9,61z M45.9,58.4
					c0,0.1,0.1,0.2,0.1,0.3c0.4,0.6,1,0.9,1.9,0.9c0.9,0,1.5-0.3,1.9-0.9c0.1-0.1,0.1-0.2,0.1-0.3H45.9z"/>
				<path class="st1" d="M45.9,58.4c0,0.1,0.1,0.2,0.1,0.3c0.4,0.6,1,0.9,1.9,0.9c0.9,0,1.5-0.3,1.9-0.9c0.1-0.1,0.1-0.2,0.1-0.3
					H45.9z"/>
			</g>
		</g>
	</g>
	<g>
		<polygon class="st4" points="91.9,57 90.3,61.6 93.9,61.6 92.2,57 		"/>
		<path class="st4" d="M114.6,55.4h-3v3.4h3c1.4,0,2.1-0.8,2.1-1.7C116.7,56.2,115.9,55.4,114.6,55.4z"/>
		<polygon class="st4" points="167.7,57 166,61.6 169.6,61.6 168,57 		"/>
		<path class="st4" d="M207.5,54.8c-1.8,0-3.3,1.6-3.3,4v4.4c0,2.5,1.5,4,3.3,4c1.8,0,3.3-1.6,3.3-4v-4.4
			C210.8,56.3,209.3,54.8,207.5,54.8z M208.4,63.2c0,0.8-0.3,1.6-0.9,1.6c-0.6,0-0.9-0.8-0.9-1.6v-4.4c0-0.8,0.3-1.6,0.9-1.6
			c0.6,0,0.9,0.8,0.9,1.6V63.2z"/>
		<g>
			<path class="st4" d="M216.5,50.4c-1.1-1.1-2.5-1.9-4-2.5c-1.5-0.6-3.2-0.9-5-0.9c-1.8,0-3.5,0.3-5,0.9c-1.5,0.6-2.9,1.4-4,2.5
				c0,0,0,0,0,0c-0.2-0.5-0.6-0.9-0.9-1.2c-1-1-2.4-1.5-4.1-1.5h-13.3c-1.6,0-3,0.5-4.1,1.5c-0.6,0.6-1,1.2-1.3,2
				c-0.6-1.1-1.3-2-2.1-2.7c-1.3-1-2.9-1.5-4.9-1.5c-2,0-3.6,0.5-4.9,1.5c-1.1,0.9-2,2.1-2.6,3.8l0,0l0,0l-2.6,7
				c-0.2-0.6-0.6-1.1-1-1.5c0,0,0,0,0,0c0.2-0.3,0.3-0.6,0.4-0.9c0.2-0.6,0.4-1.3,0.4-2.1c0-1-0.3-2.1-0.9-3.1
				c-0.5-0.9-1.3-1.7-2.2-2.4c-1-0.7-2.1-1.3-3.3-1.7c-1.3-0.4-2.7-0.6-4.2-0.6c-1.8,0-3.5,0.3-5,0.9c-1.5,0.6-2.9,1.4-4,2.5
				c-0.7,0.7-1.4,1.5-1.9,2.4c0-1.5-0.6-2.9-1.6-3.9c-1-1-2.4-1.5-4.1-1.5c-1.6,0-3,0.5-4.1,1.5c-0.8,0.8-1.4,1.9-1.6,3.1
				c-0.4-0.7-1-1.3-1.7-1.9c-2-1.6-4.8-2.5-8.4-2.5h-6.3c-1.6,0-3,0.5-4.1,1.5c-1,1-1.6,2.4-1.6,4.1v7.1l-2.9-7.9l0,0l0,0
				c-0.6-1.7-1.5-3-2.6-3.8c-1.3-1-2.9-1.5-4.9-1.5c-2,0-3.6,0.5-4.9,1.5c-1.1,0.9-2,2.1-2.6,3.8l0,0l0,0l-4.8,13
				c-0.1,0.1-0.2,0.6-0.4,1.2c-0.3,1.1-0.5,1.9-0.5,2.5c0,1.5,0.6,2.9,1.7,4c1.1,1,2.5,1.6,4,1.6c1.4,0,2.7-0.5,3.7-1.5
				c0.9-0.8,1.6-1.8,2.1-3.2l0.1-0.4h3.2l0.1,0.4c0.5,1.3,1.2,2.4,2.1,3.2c1.1,1,2.3,1.5,3.7,1.5c1.5,0,3-0.6,4-1.6
				c0.1-0.1,0.2-0.2,0.2-0.2c0.1,0.1,0.2,0.2,0.3,0.3c1,1,2.4,1.5,4.1,1.5c1.6,0,3-0.5,4.1-1.5c1-1,1.6-2.4,1.6-4.1V69l2.4,3.2l0,0
				l0,0c0.1,0.1,0.5,0.6,1.2,1.2c1.1,0.8,2.2,1.3,3.4,1.3c2.2,0,3.5-0.8,4.3-1.5c0.2-0.2,0.4-0.4,0.5-0.6c0.1,0.2,0.3,0.3,0.5,0.5
				c1,1,2.4,1.5,4.1,1.5c1.6,0,3-0.5,4.1-1.5c1-1,1.6-2.4,1.6-3.9c0.5,0.9,1.2,1.7,1.9,2.4c1.1,1.1,2.5,1.9,4,2.5
				c1.5,0.6,3.2,0.9,5,0.9c1.5,0,3-0.2,4.4-0.6c1.3-0.4,2.4-0.9,3.5-1.6c0.3-0.2,0.5-0.4,0.8-0.6c0.2,0.3,0.5,0.6,0.8,0.9
				c1.1,1,2.5,1.6,4,1.6c1.4,0,2.7-0.5,3.7-1.5c0.9-0.8,1.6-1.8,2.1-3.2l0.1-0.4h3.2l0.1,0.4c0.5,1.3,1.2,2.4,2.1,3.2
				c1.1,1,2.3,1.5,3.7,1.5c1.5,0,3-0.6,4-1.6c1.1-1,1.7-2.5,1.7-4c0-0.7-0.2-1.5-0.5-2.5c-0.2-0.6-0.4-1-0.4-1.2l-2.6-7.2
				c0.8,0.4,1.7,0.6,2.7,0.6h0.9v10.3c0,1.6,0.6,3,1.6,4.1c1,1,2.4,1.5,4.1,1.5c1.6,0,3-0.5,4.1-1.5c1-1,1.6-2.4,1.6-4.1V58.8h0.9
				c0.5,0,1.1-0.1,1.5-0.2c0,0.1,0,0.1,0,0.2v4.4c0,3.3,1.2,6.3,3.5,8.5c1.1,1.1,2.5,1.9,4,2.5c1.5,0.6,3.2,0.9,5,0.9
				c1.8,0,3.5-0.3,5-0.9c1.5-0.6,2.9-1.4,4-2.5c2.3-2.2,3.5-5.2,3.5-8.5v-4.4C220,55.5,218.8,52.5,216.5,50.4z M99.6,72.2
				c-1.7,0-2.9-1.2-3.6-3.1l-0.8-1.9h-6.3l-0.8,1.9c-0.8,1.9-2,3.1-3.6,3.1c-2,0-3.3-1.4-3.3-3.1c0-0.9,0.8-2.8,0.8-2.8l4.8-13.1
				c0.9-2.3,2.3-3.7,5.3-3.7c3,0,4.4,1.4,5.3,3.7l4.8,13.1c0,0,0.2,0.4,0.3,0.9v1.9c0,0.5,0,0.9,0.1,1.3
				C102.2,71.5,101,72.2,99.6,72.2z M120.9,72.2c-1.5,0-2.7-1.6-2.7-1.6l-4.8-6.5h-1.8v5c0,1.9-1.2,3.1-3.3,3.1
				c-1.5,0-2.6-0.7-3.1-1.7c0.1-0.4,0.2-0.9,0.2-1.4c0-0.6-0.1-1.4-0.4-2.3V53.2c0-1.9,1.2-3.1,3.3-3.1h6.3c6.3,0,9.1,2.8,9.1,7
				c0,3.9-3.3,5.1-3.3,5.1v0.3l3,3.7c0,0,1.2,1.6,1.2,2.8C124.5,71,123.3,72.2,120.9,72.2z M133.6,69.1c0,1.9-1.2,3.1-3.3,3.1
				c-2.1,0-3.3-1.2-3.3-3.1V52.9c0-1.9,1.2-3.1,3.3-3.1c2.1,0,3.3,1.2,3.3,3.1V69.1z M146.8,72.5c-6.2,0-10.1-4-10.1-9.3v-4.4
				c0-5.3,3.9-9.3,10.1-9.3c5.3,0,8.3,3.1,8.3,5.3c0,1.7-1.1,2.8-3.3,2.8c-2.4,0-2.7-2.2-5-2.2c-2,0-3.3,1.4-3.3,3.4v4.4
				c0,2,1.4,3.4,3.3,3.4c1.7,0,2.9-0.9,2.9-0.9v-1.2h-0.9c-1.8,0-3-1.2-3-2.8c0-1.6,1.2-2.8,3-2.8h4.2c1.8,0,2.7,0.9,2.7,2.8v3.1
				l-0.3,0.7c-0.1,0.1-0.2,0.6-0.4,1.2c-0.3,1.1-0.5,1.9-0.5,2.5c0,0.2,0,0.4,0,0.6C153.2,71.2,150.5,72.5,146.8,72.5z M178.7,69.1
				c0,1.7-1.4,3.1-3.3,3.1c-1.7,0-2.9-1.2-3.6-3.1l-0.8-1.9h-6.3l-0.8,1.9c-0.8,1.9-2,3.1-3.6,3.1c-1.5,0-2.6-0.8-3.1-2
				c0.6-1,1-2,1-3v-2.1l4.4-11.9c0.9-2.3,2.3-3.7,5.3-3.7c3,0,4.4,1.4,5.3,3.7l4.8,13.1C177.9,66.3,178.7,68.2,178.7,69.1z
				 M193.5,56.3h-3.3v12.8c0,1.9-1.2,3.1-3.3,3.1c-2.1,0-3.3-1.2-3.3-3.1V56.3h-3.3c-2.1,0-3.3-1.2-3.3-3.1c0-1.9,1.2-3.1,3.3-3.1
				h13.3c1.8,0,3,1,3.3,2.4c-0.6,1-1.1,2.1-1.4,3.3C194.8,56.2,194.2,56.3,193.5,56.3z M217.6,63.2c0,5.3-3.9,9.3-10.1,9.3
				c-6.2,0-10.1-4-10.1-9.3v-4.4c0-0.5,0-1,0.1-1.5c0,0,0,0,0,0c1-1,1.6-2.4,1.6-4c1.7-2.3,4.6-3.8,8.3-3.8c6.2,0,10.1,4,10.1,9.3
				V63.2z"/>
			<g>
				<path class="st5" d="M88.1,69.1c-0.8,1.9-2,3.1-3.6,3.1c-2,0-3.3-1.4-3.3-3.1c0-0.9,0.8-2.8,0.8-2.8l4.8-13.1
					c0.9-2.3,2.3-3.7,5.3-3.7c3,0,4.4,1.4,5.3,3.7l4.8,13.1c0,0,0.8,1.9,0.8,2.8c0,1.7-1.4,3.1-3.3,3.1c-1.7,0-2.9-1.2-3.6-3.1
					l-0.8-1.9h-6.3L88.1,69.1z M93.9,61.6L92.2,57h-0.3l-1.7,4.7H93.9z"/>
				<path class="st5" d="M111.5,64.1v5c0,1.9-1.2,3.1-3.3,3.1c-2.1,0-3.3-1.2-3.3-3.1V53.2c0-1.9,1.2-3.1,3.3-3.1h6.3
					c6.3,0,9.1,2.8,9.1,7c0,3.9-3.3,5.1-3.3,5.1v0.3l3,3.7c0,0,1.2,1.6,1.2,2.8c0,1.9-1.2,3.1-3.6,3.1c-1.5,0-2.7-1.6-2.7-1.6
					l-4.8-6.5H111.5z M114.6,58.8c1.4,0,2.1-0.8,2.1-1.7c0-0.9-0.8-1.7-2.1-1.7h-3v3.4H114.6z"/>
				<path class="st5" d="M133.6,69.1c0,1.9-1.2,3.1-3.3,3.1c-2.1,0-3.3-1.2-3.3-3.1V52.9c0-1.9,1.2-3.1,3.3-3.1
					c2.1,0,3.3,1.2,3.3,3.1V69.1z"/>
				<path class="st5" d="M136.7,58.8c0-5.3,3.9-9.3,10.1-9.3c5.3,0,8.3,3.1,8.3,5.3c0,1.7-1.1,2.8-3.3,2.8c-2.4,0-2.7-2.2-5-2.2
					c-2,0-3.3,1.4-3.3,3.4v4.4c0,2,1.4,3.4,3.3,3.4c1.7,0,2.9-0.9,2.9-0.9v-1.2h-0.9c-1.8,0-3-1.2-3-2.8c0-1.6,1.2-2.8,3-2.8h4.2
					c1.8,0,2.7,0.9,2.7,2.8v5.6c0,2.2-3.3,5.3-8.9,5.3c-6.2,0-10.1-4-10.1-9.3V58.8z"/>
				<path class="st5" d="M163.9,69.1c-0.8,1.9-2,3.1-3.6,3.1c-2,0-3.3-1.4-3.3-3.1c0-0.9,0.8-2.8,0.8-2.8l4.8-13.1
					c0.9-2.3,2.3-3.7,5.3-3.7c3,0,4.4,1.4,5.3,3.7l4.8,13.1c0,0,0.8,1.9,0.8,2.8c0,1.7-1.4,3.1-3.3,3.1c-1.7,0-2.9-1.2-3.6-3.1
					l-0.8-1.9h-6.3L163.9,69.1z M169.6,61.6L168,57h-0.3l-1.7,4.7H169.6z"/>
				<path class="st5" d="M180.2,56.3c-2.1,0-3.3-1.2-3.3-3.1c0-1.9,1.2-3.1,3.3-3.1h13.3c2.1,0,3.3,1.2,3.3,3.1
					c0,1.9-1.2,3.1-3.3,3.1h-3.3v12.8c0,1.9-1.2,3.1-3.3,3.1c-2.1,0-3.3-1.2-3.3-3.1V56.3H180.2z"/>
				<path class="st5" d="M217.6,63.2c0,5.3-3.9,9.3-10.1,9.3c-6.2,0-10.1-4-10.1-9.3v-4.4c0-5.3,3.9-9.3,10.1-9.3
					c6.2,0,10.1,4,10.1,9.3V63.2z M210.8,58.8c0-2.5-1.5-4-3.3-4c-1.8,0-3.3,1.6-3.3,4v4.4c0,2.5,1.5,4,3.3,4c1.8,0,3.3-1.6,3.3-4
					V58.8z"/>
			</g>
			<g>
				<g>
					<path class="st0" d="M88.3,81.7h0.1c0.1,0,0.1,0,0.1,0.1l0.5,2.8c0.1,0.6,0.5,1,1.1,1c0.6,0,1-0.4,1-1c0-0.4-0.1-0.9-0.1-0.9
						l-0.7-4.5c-0.1-0.8-0.6-1.2-1.4-1.2c-0.7,0-1.1,0.4-1.5,1.2l-0.9,2.5c0,0-0.1,0.1-0.1,0.1h-0.1c0,0-0.1,0-0.1-0.1l-0.9-2.5
						c-0.3-0.8-0.8-1.2-1.5-1.2c-0.8,0-1.3,0.4-1.4,1.2l-0.7,4.5c0,0-0.1,0.5-0.1,0.9c0,0.6,0.4,1,1,1c0.6,0,1-0.4,1.1-1l0.5-2.8
						c0-0.1,0.1-0.1,0.1-0.1h0.1c0,0,0.1,0,0.1,0.1l0.8,2c0.2,0.7,0.6,1,1.1,1c0.5,0,0.9-0.3,1.1-1L88.3,81.7
						C88.2,81.8,88.3,81.7,88.3,81.7z"/>
				</g>
				<g>
					<path class="st0" d="M99.7,82h0.1c0.1,0,0.1,0,0.1,0.1v2.5c0,0.6,0.4,1,1,1c0.6,0,1-0.4,1-1v-5.6c0-0.6-0.4-1-1-1
						c-0.6,0-0.9,0.3-1.4,1l-1.8,2.5c0,0-0.1,0-0.1,0h-0.1c-0.1,0-0.1,0-0.1-0.1v-2.5c0-0.6-0.4-1-1-1c-0.6,0-1,0.4-1,1v5.6
						c0,0.6,0.4,1,1,1c0.6,0,0.9-0.3,1.4-1L99.7,82C99.6,82.1,99.6,82,99.7,82z"/>
				</g>
				<g>
					<path class="st0" d="M108.2,85.5h3.9c0.1,0,0.1,0,0.1,0.1v0.5c0,0.6,0.4,1,1,1c0.6,0,1-0.4,1-1v-1.7c0-0.6-0.3-0.9-0.8-0.9
						h-0.1c-0.1,0-0.1,0-0.1-0.1v-4.3c0-0.6-0.4-1-1-1h-3.6c-0.6,0-1,0.4-1,1v2.6c0,1-0.6,1.7-0.6,1.8c0,0,0,0-0.1,0
						c-0.6,0-0.8,0.3-0.8,0.8v1.7c0,0.6,0.4,1,1,1c0.6,0,1-0.4,1-1v-0.5C108,85.5,108.1,85.5,108.2,85.5z M111,83.5h-1.9
						c-0.1,0-0.1,0-0.1-0.1v-0.1c0,0,0-0.1,0-0.1c0,0,0.5-0.6,0.5-1.5v-1.5c0-0.1,0-0.1,0.1-0.1h1.3c0.1,0,0.1,0,0.1,0.1v3.2
						C111.1,83.5,111.1,83.5,111,83.5z"/>
				</g>
				<g>
					<path class="st0" d="M122.7,82h0.1c0.1,0,0.1,0,0.1,0.1v2.5c0,0.6,0.4,1,1,1s1-0.4,1-1v-5.6c0-0.6-0.4-1-1-1
						c-0.6,0-0.9,0.3-1.4,1l-1.8,2.5c0,0-0.1,0-0.1,0h-0.1c-0.1,0-0.1,0-0.1-0.1v-2.5c0-0.6-0.4-1-1-1c-0.6,0-1,0.4-1,1v5.6
						c0,0.6,0.4,1,1,1c0.6,0,0.9-0.3,1.4-1L122.7,82C122.7,82.1,122.7,82,122.7,82z"/>
				</g>
				<g>
					<path class="st0" d="M134.1,82h0.1c0.1,0,0.1,0,0.1,0.1v2.5c0,0.6,0.4,1,1,1c0.6,0,1-0.4,1-1v-5.6c0-0.6-0.4-1-1-1
						c-0.6,0-0.9,0.3-1.4,1l-1.8,2.5c0,0-0.1,0-0.1,0H132c-0.1,0-0.1,0-0.1-0.1v-2.5c0-0.6-0.4-1-1-1c-0.6,0-1,0.4-1,1v5.6
						c0,0.6,0.4,1,1,1c0.6,0,0.9-0.3,1.4-1L134.1,82C134,82.1,134,82,134.1,82z"/>
				</g>
				<g>
					<path class="st0" d="M150.1,78c-1.6,0-2.5,1.1-2.5,2c0,1,0.7,1.4,0.7,1.4c0,0,0.1,0.1,0.1,0.1v0.1c0,0,0,0.1-0.1,0.1
						c0,0-1.5,0.5-1.5,1.9c0,1,1,2,2.6,2c1.8,0,2.4-0.8,2.4-0.8c0,0,0.1,0,0.1,0h0.1c0,0,0.1,0,0.1,0c0.3,0.3,0.7,0.7,1.3,0.7
						c0.5,0,0.9-0.4,0.9-1c0-0.5-0.5-0.9-0.7-1.1c0,0,0-0.1,0-0.1v-0.1c0,0,0-0.1,0-0.1c0.1-0.1,0.3-0.4,0.3-0.6c0-0.6-0.4-1-0.9-1
						c-0.5,0-0.9,0.5-0.9,0.5c0,0,0,0-0.1,0c0,0-0.1,0-0.1,0l-0.4-0.3c0,0,0,0,0-0.1v-0.1c0,0,0-0.1,0.1-0.1c0,0,1.1-0.4,1.1-1.5
						C152.6,79,151.6,78,150.1,78z M149.7,84c-0.5,0-0.7-0.3-0.7-0.5c0-0.5,0.5-0.7,0.5-0.7c0,0,0.1,0,0.1,0l0.8,0.7
						c0,0,0,0.1,0,0.1C150.4,83.6,150.1,84,149.7,84z M150.1,80.8C150.1,80.8,150,80.8,150.1,80.8c-0.1,0-0.6-0.3-0.6-0.6
						c0-0.3,0.3-0.5,0.6-0.5c0.3,0,0.6,0.2,0.6,0.5C150.6,80.5,150.1,80.7,150.1,80.8C150.1,80.8,150.1,80.8,150.1,80.8z"/>
				</g>
				<g>
					<path class="st0" d="M165.6,78.2c-0.6,0-1,0.4-1,1v5.4c0,0.6,0.4,1,1,1c0.6,0,1-0.4,1-1v-1.3c0-0.1,0-0.1,0.1-0.1h0.9
						c1.9,0,3.1-1,3.1-2.5c0-1.5-1.2-2.5-3.1-2.5H165.6z M167.7,81.5h-0.9c-0.1,0-0.1,0-0.1-0.1V80c0-0.1,0-0.1,0.1-0.1h0.9
						c0.6,0,0.9,0.4,0.9,0.8C168.6,81.1,168.3,81.5,167.7,81.5z"/>
				</g>
				<g>
					<path class="st0" d="M178.3,78c-2,0-3.4,1.3-3.4,3.1v1.5c0,1.8,1.4,3.1,3.4,3.1c2,0,3.4-1.3,3.4-3.1v-1.5
						C181.6,79.3,180.3,78,178.3,78z M178.3,84.1c-0.7,0-1.2-0.6-1.2-1.5v-1.5c0-0.9,0.5-1.5,1.2-1.5c0.7,0,1.2,0.6,1.2,1.5v1.5
						C179.5,83.4,179,84.1,178.3,84.1z"/>
				</g>
				<g>
					<path class="st0" d="M187.7,78.2c-0.6,0-1,0.4-1,1v2.6c0,1.5-0.6,2-1,2.3c-0.3,0.2-0.5,0.3-0.5,0.7c0,0.6,0.4,1,0.9,1
						c1.3,0,2.6-1.4,2.6-3.9v-1.5c0-0.1,0-0.1,0.1-0.1h1.4c0.1,0,0.1,0,0.1,0.1v4.4c0,0.6,0.4,1,1,1c0.6,0,1-0.4,1-1v-5.4
						c0-0.6-0.4-1-1-1H187.7z"/>
				</g>
				<g>
					<path class="st0" d="M198.9,78.2c-0.6,0-1,0.4-1,1v2.6c0,1.5-0.6,2-1,2.3c-0.3,0.2-0.5,0.3-0.5,0.7c0,0.6,0.4,1,0.9,1
						c1.3,0,2.6-1.4,2.6-3.9v-1.5c0-0.1,0-0.1,0.1-0.1h1.4c0.1,0,0.1,0,0.1,0.1v4.4c0,0.6,0.4,1,1,1c0.6,0,1-0.4,1-1v-5.4
						c0-0.6-0.4-1-1-1H198.9z"/>
				</g>
				<g>
					<path class="st0" d="M216.5,78.1c-0.6,0-1,0.4-1,1v5.6c0,0.6,0.4,1,1,1c0.6,0,1-0.4,1-1v-5.6C217.5,78.5,217.1,78.1,216.5,78.1
						z M209.5,78.1c-0.6,0-1,0.4-1,1v5.4c0,0.6,0.4,1,1,1h2c1.9,0,3.1-1,3.1-2.5c0-1.5-1.2-2.5-3.1-2.5h-0.8c-0.1,0-0.1,0-0.1-0.1
						v-1.3C210.5,78.5,210.1,78.1,209.5,78.1z M211.4,83.8h-0.8c-0.1,0-0.1,0-0.1-0.1v-1.4c0-0.1,0-0.1,0.1-0.1h0.8
						c0.6,0,0.9,0.4,0.9,0.8C212.4,83.4,212.1,83.8,211.4,83.8z"/>
				</g>
			</g>
		</g>
	</g>
</g>
</svg>
