<?xml version="1.0" encoding="utf-8"?>
<!-- Generator: Adobe Illustrator 22.1.0, SVG Export Plug-In . SVG Version: 6.00 Build 0)  -->
<svg version="1.1" id="Capa_1" xmlns="http://www.w3.org/2000/svg" xmlns:xlink="http://www.w3.org/1999/xlink" x="0px" y="0px"
	 viewBox="0 0 435.2 435.2" style="enable-background:new 0 0 435.2 435.2;" xml:space="preserve">
<g>
	<g>
		<path fill="#fff" class="st0" d="M75.1,425.3V329C27.3,294.4,0,244.7,0,191.6C0,91.4,97.6,9.9,217.6,9.9s217.6,81.5,217.6,181.7
			c0,100.2-97.6,181.7-217.6,181.7c-14.2,0-28.5-1.2-42.6-3.5L75.1,425.3z M217.6,39.2c-103.9,0-188.3,68.4-188.3,152.4
			c0,45.6,25,88.4,68.6,117.6l6.5,4.3v62l65.5-36.5l5.2,1c14,2.6,28.3,4,42.5,4C321.5,344,406,275.7,406,191.6
			C406,107.6,321.5,39.2,217.6,39.2z"/>
	</g>
</g>
</svg>
