<?xml version="1.0" encoding="utf-8"?>
<!-- Generator: Adobe Illustrator 21.1.0, SVG Export Plug-In . SVG Version: 6.00 Build 0)  -->
<svg version="1.1" id="Layer_1" xmlns="http://www.w3.org/2000/svg" xmlns:xlink="http://www.w3.org/1999/xlink" x="0px" y="0px"
	 viewBox="0 0 240 120" style="enable-background:new 0 0 240 120;" xml:space="preserve">
<style type="text/css">
	.st0{fill:#DF6217;}
	.st1{fill:#E79F4A;}
	.st2{fill:#464646;}
</style>
<g>
	<path class="st0" d="M117.6,54.7c-3.7,0.5-6.3,2.7-6.7,6.6c-0.3,3.6,0.9,6.3,4.4,7.7c0.9,0.4,1.9,0.6,2.9,1c0.7,0.3,1.4,0.6,2,1
		c1,0.8,0.7,2.3-0.5,2.6c-0.5,0.2-1.3,0.2-1.7,0.2c-1.4-0.1-2.8-0.3-4.2-0.6c-1.1-0.2-2.1-0.7-3.3-1c0,0.1-0.1,0.2-0.1,0.2
		c-0.1,1.9,0.2,3.8,1.1,5.5c0.1,0.2,0.4,0.5,0.7,0.6c3.1,1.1,6.3,1.3,9.5,0.6c2.1-0.4,4-1.4,5.1-3.4c1-1.8,1.2-3.8,1-5.8
		c-0.3-2.3-1.5-4.1-3.6-5.1c-0.9-0.4-1.9-0.7-2.8-1.1c-0.8-0.3-1.7-0.6-2.5-1c-0.7-0.4-1-1.1-0.8-1.7c0.2-0.7,0.8-0.9,1.4-1
		c0.1,0,0.9-0.2,3.5,0.3c1.3,0.3,2.6,0.8,3.9,1.2c0,0,0.1-0.1,0.1-0.2c0.1-1.9-0.2-3.7-1.1-5.3c-0.1-0.2-0.3-0.3-0.5-0.4
		c-1.7-0.8-3.5-1.1-5.3-1.1C119.2,54.6,118.4,54.6,117.6,54.7"/>
	<path class="st0" d="M73.7,55c-3.6,0.9-6.2,3-7.6,6.3c-1.5,3.3-1.6,6.8-0.7,10.3c0.7,2.8,2.2,5,4.8,6.4c3.8,2,7.7,1.9,11.7,0.6
		c0.2-0.1,0.4-0.2,0.5-0.4c0.9-1.3,1.4-2.8,1.6-4.4c0-0.3,0-0.6,0.1-1c-0.1,0-0.2,0-0.2,0c-0.1,0-0.2,0.1-0.3,0.1
		c-2,0.6-4,0.8-6,0.7c-2.7-0.2-4.7-1.8-5.1-4.5c-0.2-1.1-0.2-2.3-0.1-3.5c0.3-2.9,2.2-4.8,5-5.1c2.1-0.3,4.2,0,6.2,0.9
		c0.2-1.7-0.1-3.9-0.9-5.4c-0.2-0.4-0.5-0.6-0.9-0.8c-1.4-0.5-2.9-0.7-4.3-0.7C76.2,54.6,75,54.7,73.7,55"/>
	<path class="st0" d="M41.2,41.4c1.1,2.1,0.4,4.6-1.7,5.8c-11.6,2.6-17.8,19.4-2.9,31.6l-0.1-0.4c-0.1-0.3-0.2-0.6-0.3-0.9
		c-0.9-3.2-1.3-4.6-1.3-9.9c0-7.6,3.9-12.1,11.5-13.4L47,54c1.8-0.5,3.6-1.8,4.8-3.6c-0.1-0.6-0.2-1.2-0.4-1.7c0,0,0,0,0,0
		c0-0.1,0-0.1-0.1-0.2c0,0,0-0.1,0-0.1c0,0,0-0.1,0-0.1c0-0.1,0-0.1-0.1-0.2c0,0,0,0,0,0C49.5,44.1,45.7,41.4,41.2,41.4
		C41.2,41.4,41.2,41.4,41.2,41.4"/>
	<path class="st1" d="M52.8,42.1c0.6,1,0.9,2.1,0.9,3.2c0,1.7-0.7,3.5-1.8,5.1c-1.3,1.7-3,3.1-4.8,3.6l-0.7,0.1
		c-7.6,1.3-11.5,5.8-11.5,13.4c0,5.3,0.4,6.7,1.3,9.9c0.1,0.3,0.2,0.6,0.3,0.9l0.1,0.4c-14.9-12.2-8.7-29,2.9-31.6
		c2.1-1.1,2.8-3.7,1.7-5.8c0,0,0,0,0,0h0v0c0,2.3-1.9,4.3-4.2,4.3c-9.4,0-17,7.6-17,17c0,9.3,7.5,16.8,16.8,16.9l0,0H57v-1.7
		c0-3.1-2.4-5.6-5.5-5.7c0.9-1.3,1.4-2.8,1.4-4.5c0-0.1,0-0.3,0-0.4h2c1.5,0,3-0.6,4.1-1.7c1.1-1.1,1.7-2.5,1.7-4.1v-1.7h-3.6
		l0.9-1.8c0,0,0,0,0,0c2.4-0.3,4.7-1.4,6.3-3.3l0.4-0.5v-0.9c0-4.7-3.4-8.7-7.9-9.6c-0.2-1.2-0.6-2.3-1.2-3.4L52.8,42.1z"/>
	<path class="st0" d="M147.8,54.6c-1,0-1.9,0.1-2.9,0.3c-0.3,0.1-0.5,0.4-0.5,0.8v8.5H137v-8.5c0-0.4-0.2-0.7-0.5-0.8
		c-0.9-0.2-1.9-0.3-2.9-0.3c-1,0-1.9,0.1-2.9,0.3c-0.3,0.1-0.5,0.4-0.5,0.8v22.7c0,0.4,0.2,0.7,0.5,0.8c0.9,0.2,1.9,0.3,2.9,0.3
		c1,0,1.9-0.1,2.9-0.3c0.3-0.1,0.5-0.4,0.5-0.8v-8.5h7.4v8.5c0,0.4,0.2,0.7,0.5,0.8c0.9,0.2,1.9,0.3,2.9,0.3c1,0,1.9-0.1,2.9-0.3
		c0.3-0.1,0.5-0.4,0.5-0.8V55.7c0-0.4-0.2-0.7-0.5-0.8C149.7,54.7,148.8,54.6,147.8,54.6C147.8,54.6,147.8,54.6,147.8,54.6"/>
	<path class="st0" d="M95.8,65.2c0.3-1.6,0.6-3,0.9-4.6c0-0.1,0.1-0.3,0.1-0.4c0.1-0.1,0.3-0.3,0.3-0.3c0,0,0.2,0.2,0.3,0.3
		c0,0.1,0.1,0.3,0.1,0.4c0.3,1.6,0.6,3,0.9,4.6c0.1,0.5,0.5,2.1,1,4.1h-4.7C95.3,67.4,95.7,65.7,95.8,65.2 M92.7,54.9
		c-0.3,0.1-0.5,0.2-0.6,0.5c-2.3,7.7-4.6,15.3-6.9,23c-0.1,0.4,0,0.6,0.4,0.7c2.1,0.6,4.2,0.6,6.4-0.1c0.2-0.1,0.5-0.4,0.5-0.6
		c0.1-0.4,0.5-1.7,0.9-3.5h7.5c0.4,1.7,0.8,3.1,0.9,3.5c0.1,0.2,0.3,0.5,0.5,0.6c2.1,0.6,4.2,0.6,6.4,0.1c0.4-0.1,0.5-0.3,0.4-0.7
		c-2.3-7.7-4.6-15.3-6.9-23c-0.1-0.3-0.2-0.5-0.6-0.5c-1.5-0.2-3-0.3-4.4-0.4C95.7,54.6,94.2,54.7,92.7,54.9"/>
	<path class="st2" d="M196.4,60.4c-1.4-2.7-3.6-4.5-6.4-5.3c-1.2-0.3-2.3-0.5-3.5-0.5c-1.2,0-2.3,0.2-3.5,0.5
		c-2.8,0.8-5,2.6-6.4,5.3c-1.1,2.1-1.4,4.4-1.4,6.5c0.1,2,0.2,3.7,0.7,5.4c0.9,3,2.6,5.2,5.4,6.3c1.7,0.7,3.5,1,5.3,1
		c1.8,0,3.5-0.3,5.3-1c2.8-1.1,4.5-3.4,5.4-6.3c0.5-1.7,0.7-3.4,0.7-5.4C197.8,64.7,197.5,62.5,196.4,60.4 M190.1,71.1
		c-0.6,1.7-2,2.6-3.6,2.7c-1.6,0-3-0.9-3.6-2.7c-1-2.7-1-5.4-0.1-8.1c0.6-1.7,1.9-2.6,3.6-2.6c0,0,0,0,0.1,0c0,0,0,0,0.1,0
		c1.8,0,3,0.9,3.6,2.6C191.1,65.7,191,68.4,190.1,71.1"/>
	<path class="st2" d="M174.5,55.7c0-0.4-0.2-0.7-0.5-0.8c-0.9-0.2-1.9-0.3-2.9-0.3c-1,0-1.9,0.1-2.9,0.3c-0.2,0-0.4,0.2-0.4,0.4l0,0
		v0c0,0.1,0,0.1-0.1,0.2c-1,2.7-2.3,5.8-2.9,8.6c-0.1,0.4-0.2,0.6-0.3,1c-0.1,0.2-0.2,0.6-0.3,0.8c-0.1-0.2-0.2-0.6-0.3-0.8
		c-0.1-0.4-0.2-0.6-0.3-1c-0.6-2.8-1.9-5.9-2.9-8.6c0-0.1,0-0.1-0.1-0.2v0l0,0c-0.1-0.2-0.2-0.3-0.4-0.4c-0.9-0.2-1.9-0.3-2.9-0.3
		c-1,0-1.9,0.1-2.9,0.3c-0.3,0.1-0.5,0.4-0.5,0.8c0,0.1,0,0.3,0.1,0.4c2.3,5.3,3.9,9.1,6.2,14.4c0.1,0.3,0.6,1.6,0.6,2
		c0,0.1,0,0.2,0,0.3v5.7c0,0.4,0.2,0.7,0.5,0.8c0.9,0.2,1.9,0.3,2.9,0.3c1,0,1.9-0.1,2.9-0.3c0.3-0.1,0.5-0.4,0.5-0.8v-5.7
		c0-0.1,0-0.2,0-0.3c0-0.3,0.4-1.7,0.6-2c2.2-5.3,3.9-9.1,6.2-14.4C174.5,56,174.5,55.8,174.5,55.7"/>
	<path class="st2" d="M220,55.7c0-0.4-0.2-0.7-0.5-0.8c-0.9-0.2-1.9-0.3-2.9-0.3c-1,0-1.9,0.1-2.9,0.3c-0.3,0.1-0.5,0.4-0.5,0.8
		v14.8c-0.3,1.9-1.2,3-3.2,3.1c-0.1,0-0.2,0-0.2,0h0c-0.1,0-0.2,0-0.2,0c-2-0.1-2.9-1.2-3.2-3.1V55.7c0-0.4-0.2-0.7-0.5-0.8
		c-0.9-0.2-1.9-0.3-2.9-0.3c-1,0-1.9,0.1-2.9,0.3c-0.3,0.1-0.5,0.4-0.5,0.8v14.8c0.1,2.2,0.7,4.3,2.3,6.1c1.2,1.4,2.8,2.2,4.5,2.6
		c1.1,0.3,2.3,0.4,3.4,0.4h0c1.1,0,2.3-0.1,3.4-0.4c1.7-0.4,3.3-1.3,4.5-2.6c1.6-1.7,2.2-3.8,2.3-6.1V55.7z"/>
</g>
</svg>
