<?xml version="1.0" encoding="utf-8"?>
<!-- Generator: Adobe Illustrator 21.1.0, SVG Export Plug-In . SVG Version: 6.00 Build 0)  -->
<svg version="1.1" id="Capa_1" xmlns="http://www.w3.org/2000/svg" xmlns:xlink="http://www.w3.org/1999/xlink" x="0px" y="0px"
	 viewBox="0 0 20 20" style="enable-background:new 0 0 20 20;" xml:space="preserve">
<style type="text/css">
	.st0{fill:#010002;}
</style>
<path class="st0" d="M0,20h20V0H0V20z M16.7,16.1H3.1c0,0-0.1,0-0.2-0.1c0,0-0.1-0.1-0.1-0.1c0-0.1,0-0.1,0-0.1l5.3-4.9
	c0,0,0.1,0,0.1,0l1.4,0.8c0.2,0.1,0.4,0.1,0.6,0l1.6-0.9c0.1,0,0.1,0,0.1,0l4.7,5.1c0,0,0,0.1,0,0.1C16.8,16.1,16.7,16.1,16.7,16.1z
	 M17.3,14.4c0,0,0,0.1-0.1,0.1h-0.1c0,0,0,0-0.1-0.1l-3.9-4.3c0,0,0-0.1,0-0.1c0-0.1,0-0.1,0.1-0.1l3.9-2.3h0.1
	c0.1,0,0.1,0.1,0.1,0.1V14.4z M2.6,4.7c0-0.2,0-0.3,0.1-0.4C2.9,4.2,3,4.2,3.1,4.2h13.7c0.1,0,0.3,0,0.3,0.1
	c0.1,0.1,0.1,0.2,0.1,0.4v1.5c0,0.1,0,0.1-0.1,0.1c0,0-0.1,0-0.1,0c0,0,0,0-0.1,0l-7,4.1c0,0,0,0-0.1,0l-0.1,0L2.7,6.3
	c-0.1,0-0.1,0-0.1-0.1V4.7z M2.6,7.9C2.6,7.8,2.7,7.8,2.6,7.9c0.1-0.1,0.1-0.1,0.2-0.1L7,10.2c0,0,0.1,0,0.1,0.1c0,0,0,0.1,0,0.1
	l-4.2,3.8c0,0,0,0-0.1,0H2.7c-0.1,0-0.1-0.1-0.1-0.1V7.9z"/>
</svg>
