<?xml version="1.0" encoding="utf-8"?>
<!-- Generator: Adobe Illustrator 21.1.0, SVG Export Plug-In . SVG Version: 6.00 Build 0)  -->
<svg version="1.1" id="Capa_1" xmlns="http://www.w3.org/2000/svg" xmlns:xlink="http://www.w3.org/1999/xlink" x="0px" y="0px"
	 viewBox="0 0 20 20" style="enable-background:new 0 0 20 20;" xml:space="preserve">
<path d="M20,3.8c0-0.1,0-0.1,0-0.2V0h-3.7h0H3.8h0H0v3.8h0v12.5h0V20h3.8h0h12.5h0H20v-3.6c0-0.1,0-0.1,0-0.2V3.8z M15.1,16.2
	c-0.6,0.3-1.2,0.4-1.7,0.4c-0.1,0-0.3,0-0.4,0c-0.2,0-0.3,0-0.4-0.1c-0.1,0-0.3-0.1-0.4-0.1c-0.2-0.1-0.3-0.1-0.4-0.1
	c-0.1,0-0.2-0.1-0.4-0.2C11.2,16.1,11,16,11,16c-1.4-0.5-2.8-1.5-4.2-2.8C5.4,11.8,4.5,10.4,4,9C4,9,3.9,8.8,3.8,8.6
	C3.8,8.4,3.7,8.3,3.7,8.2c0-0.1-0.1-0.2-0.1-0.4C3.5,7.6,3.5,7.5,3.4,7.4c0-0.1,0-0.2-0.1-0.4c0-0.2,0-0.3,0-0.4
	c0-0.5,0.1-1.1,0.4-1.7c0.3-0.6,0.6-1,1-1.2c0.5-0.2,0.9-0.3,1.3-0.3c0.1,0,0.2,0,0.2,0c0,0,0.1,0.1,0.2,0.2
	c0.1,0.1,0.2,0.3,0.3,0.5C7,4.3,7.1,4.5,7.2,4.7c0.1,0.2,0.2,0.4,0.3,0.6c0.1,0.2,0.2,0.3,0.2,0.4c0,0,0.1,0.1,0.2,0.2
	C8,6.1,8.1,6.2,8.1,6.3c0,0.1,0.1,0.2,0.1,0.3c0,0.1-0.1,0.3-0.3,0.5C7.7,7.2,7.5,7.4,7.3,7.5C7.1,7.7,6.9,7.9,6.7,8
	C6.6,8.2,6.5,8.4,6.5,8.5c0,0.1,0,0.1,0,0.2c0,0.1,0.1,0.1,0.1,0.2c0,0.1,0.1,0.1,0.1,0.2c0.1,0.1,0.1,0.2,0.1,0.2
	c0.5,0.9,1,1.6,1.6,2.2c0.6,0.6,1.4,1.2,2.2,1.6c0,0,0.1,0.1,0.2,0.1c0.1,0.1,0.2,0.1,0.2,0.1c0.1,0,0.1,0.1,0.2,0.1
	c0.1,0,0.2,0,0.2,0c0.1,0,0.3-0.1,0.6-0.4c0.2-0.3,0.5-0.6,0.7-0.9c0.3-0.3,0.5-0.4,0.6-0.4c0.1,0,0.2,0,0.3,0.1
	c0.1,0,0.2,0.1,0.3,0.2c0.1,0.1,0.2,0.1,0.2,0.2l0.7,0.4c0.5,0.2,0.8,0.5,1.2,0.6c0.3,0.2,0.5,0.3,0.5,0.4c0,0,0,0.1,0,0.2
	c0,0.4-0.1,0.9-0.3,1.3C16.2,15.6,15.8,15.9,15.1,16.2z"/>
</svg>
