<?xml version="1.0" encoding="utf-8"?>
<!-- Generator: Adobe Illustrator 21.1.0, SVG Export Plug-In . SVG Version: 6.00 Build 0)  -->
<svg version="1.1" id="Capa_1" xmlns="http://www.w3.org/2000/svg" xmlns:xlink="http://www.w3.org/1999/xlink" x="0px" y="0px"
	 viewBox="0 0 20 20" style="enable-background:new 0 0 20 20;" xml:space="preserve">
<g>
	<path d="M13.9,6.6l-7.3,4.5c-0.1,0.1-0.2,0.2-0.1,0.4l1,3.2c0,0.1,0.1,0.1,0.1,0l0.2-2.1c0-0.1,0-0.2,0.1-0.2l6.2-5.5
		C14.2,6.7,14,6.5,13.9,6.6z"/>
	<path d="M0,0v20h20V0H0z M16.7,5.2l-2.3,10.9c-0.1,0.5-0.7,0.7-1.1,0.4L9.8,14l-1.8,1.8c-0.3,0.3-0.8,0.2-1-0.2l-1.3-4l-3.4-1
		c-0.4-0.1-0.5-0.8,0-0.9l13.4-5.2C16.3,4.2,16.8,4.7,16.7,5.2z"/>
</g>
</svg>
