<svg 
 xmlns="http://www.w3.org/2000/svg"
 xmlns:xlink="http://www.w3.org/1999/xlink"
 width="16px" height="16px">
<path fill-rule="evenodd"  fill="rgb(255, 255, 255)"
 d="M11.585,16.004 L4.409,16.004 C1.972,16.004 -0.011,14.022 -0.011,11.585 L-0.011,4.408 C-0.011,1.971 1.972,-0.011 4.409,-0.011 L11.585,-0.011 C14.022,-0.011 16.005,1.971 16.005,4.408 L16.005,11.585 C16.005,14.022 14.022,16.004 11.585,16.004 ZM14.583,11.585 L14.583,4.408 C14.583,2.754 13.238,1.409 11.585,1.409 L4.409,1.409 C2.755,1.409 1.410,2.754 1.410,4.408 L1.410,11.585 C1.410,13.238 2.755,14.583 4.409,14.583 L11.585,14.583 C13.238,14.583 14.584,13.238 14.584,11.585 L14.583,11.585 ZM12.297,4.749 C12.023,4.749 11.754,4.637 11.561,4.444 C11.366,4.249 11.255,3.981 11.255,3.707 C11.255,3.431 11.366,3.163 11.561,2.970 C11.754,2.776 12.023,2.664 12.297,2.664 C12.571,2.664 12.840,2.776 13.034,2.970 C13.228,3.163 13.339,3.431 13.339,3.707 C13.339,3.981 13.228,4.249 13.034,4.444 C12.839,4.637 12.571,4.749 12.297,4.749 ZM7.997,12.124 C5.721,12.124 3.870,10.272 3.870,7.996 C3.870,5.720 5.721,3.870 7.997,3.870 C10.272,3.870 12.124,5.720 12.124,7.996 C12.124,10.272 10.272,12.124 7.997,12.124 ZM7.997,5.290 C6.505,5.290 5.291,6.504 5.291,7.996 C5.291,9.488 6.505,10.701 7.997,10.701 C9.489,10.701 10.703,9.488 10.703,7.996 C10.703,6.504 9.489,5.290 7.997,5.290 Z"/>
</svg>