<svg 
 xmlns="http://www.w3.org/2000/svg"
 xmlns:xlink="http://www.w3.org/1999/xlink"
 width="15px" height="13px">
<path fill-rule="evenodd"  fill="rgb(255, 255, 255)"
 d="M14.582,0.244 C13.987,0.620 13.328,0.893 12.627,1.040 C12.066,0.401 11.267,0.004 10.382,0.004 C8.682,0.004 7.304,1.474 7.304,3.285 C7.304,3.542 7.332,3.793 7.384,4.032 C4.827,3.896 2.560,2.589 1.042,0.603 C0.777,1.088 0.626,1.651 0.626,2.253 C0.626,3.392 1.170,4.397 1.994,4.984 C1.490,4.967 1.016,4.819 0.601,4.573 L0.601,4.614 C0.601,6.204 1.662,7.529 3.068,7.833 C2.811,7.907 2.539,7.948 2.258,7.948 C2.059,7.948 1.867,7.926 1.679,7.888 C2.070,9.191 3.206,10.141 4.552,10.168 C3.500,11.048 2.172,11.572 0.731,11.572 C0.483,11.572 0.238,11.556 -0.003,11.527 C1.359,12.458 2.976,13.001 4.714,13.001 C10.373,13.001 13.468,8.000 13.468,3.663 L13.458,3.238 C14.061,2.777 14.584,2.199 14.996,1.541 C14.444,1.802 13.852,1.979 13.229,2.059 C13.865,1.652 14.352,1.008 14.582,0.244 Z"/>
</svg>